<?xml version="1.0" encoding="utf-8"?>
<!-- Generator: Adobe Illustrator 21.1.0, SVG Export Plug-In . SVG Version: 6.00 Build 0)  -->
<svg version="1.1" id="图层_1" xmlns="http://www.w3.org/2000/svg" xmlns:xlink="http://www.w3.org/1999/xlink" x="0px" y="0px"
	 viewBox="0 0 220 120" style="enable-background:new 0 0 220 120;" xml:space="preserve">
<style type="text/css">
	.st0{fill:#868DA0;}
	.st1{fill:#C9CCD6;}
	.st2{fill:#4D4D4D;}
	.st3{fill:#BFBFBF;}
	.st4{fill:#A6A6A6;}
	.st5{opacity:0.5;fill:#FFFFFF;}
	.st6{fill:#D9D9D9;}
	.st7{fill:#8C8C8C;}
	.st8{opacity:0.8;fill:#EBEBEB;}
	.st9{fill:#B3B3B3;}
</style>
<path class="st0" d="M218,105.9c0,6-47.3,9.1-106.8,9.1S2,111.9,2,105.9S50.6,91,110.1,91S218,99.9,218,105.9z"/>
<g>
	<path class="st1" d="M94.8,33v56c0,2.2,1.8,4,4,4h40c2.2,0,4-1.8,4-4V33c0-2.2-1.8-4-4-4h-40C96.5,29,94.8,30.8,94.8,33z M134.8,85
		h-32V37h32V85z"/>
	<path class="st1" d="M29.9,86h29.9v16c0,2.2,1.8,4,4,4s4-1.8,4-4V86h8c2.2,0,4-1.8,4-4s-1.8-4-4-4h-8V24c0-2.2-1.8-4-4-4
		s-3.5,2-3.5,2l-34,57.9c-1.1,1.9-0.5,4.3,1.4,5.5C28.8,86,29.9,86,29.9,86z M36.7,78l23.1-39.3V78H36.7z"/>
	<path class="st1" d="M170,106L170,106c-2.8,0-5-2.2-5-5V25c0-2.8,2.2-5,5-5l0,0c2.8,0,5,2.2,5,5v76C175,103.8,172.8,106,170,106z"
		/>
	<g>
		<polygon class="st2" points="144.8,94 118.8,113 89.1,93.6 118.8,92 		"/>
		<polygon class="st3" points="143.8,66 118.8,77 118.8,110 143.8,94 		"/>
		<polygon class="st4" points="93.8,66 93.8,94 118.8,110 118.8,77 93.8,66 		"/>
		<path class="st5" d="M108,95.7l-0.4-1l-0.3-0.2l-0.3,0.4c0,0-0.3-0.5-0.4-0.8l-0.2-0.1c0,0.2-0.1,0.5-0.1,0.5l-0.2-0.7l-0.9-0.5
			l-0.7,0.3l-0.2-0.8l0,0l-0.2,0.8l-0.4-1.1l-0.2-0.1l-0.1,0.4l0,0.8l-0.2-0.4l-0.4-1.1l-0.3-0.1v7.3l6,4v-7.9l-0.3-0.2L108,95.7z"
			/>
		<g>
			<polygon class="st6" points="143.8,66 118.8,60 93.8,66 118.8,77 			"/>
		</g>
		<path class="st5" d="M103.5,77.6l0.2,0.6l0.2-0.4l0.1,0.5c0,0,0.1-0.1,0.3-0.2l0,0.4c0.2-0.1,0.3-0.3,0.3-0.3l-0.1,0.4l1.9,1.2
			L107,80l0.4,0.3l0,0l0.3,0.2l0.3,0.2l0.2,0.1l0.1-0.2l0.2,0.3l0.2,0l0.1,0.2l0.3,0.1l-0.1-8.5l-5.9-2.6v7.9l0.2,0L103.5,77.6z"/>
		<polygon class="st7" points="109.4,62.3 133.1,70.7 132.6,70.9 109.2,62.3 		"/>
		<polygon class="st8" points="103.1,70.1 126.9,61.9 133,63.4 109,72.7 		"/>
		<polygon class="st9" points="118.8,77 118.8,77.6 143.8,66.3 143.8,66 		"/>
		<polygon class="st5" points="111.8,61.7 135.8,69.5 129.8,72.2 105.7,63.2 		"/>
		<polygon class="st5" points="135.8,99.1 135.8,69.5 129.8,72.2 129.8,103 		"/>
	</g>
</g>
</svg>
