<?xml version="1.0" encoding="utf-8"?>
<!-- Generator: Adobe Illustrator 21.1.0, SVG Export Plug-In . SVG Version: 6.00 Build 0)  -->
<svg version="1.1" id="图层_1" xmlns="http://www.w3.org/2000/svg" xmlns:xlink="http://www.w3.org/1999/xlink" x="0px" y="0px"
	 viewBox="0 0 220 120" style="enable-background:new 0 0 220 120;" xml:space="preserve">
<style type="text/css">
	.st0{fill:#868DA0;}
	.st1{fill:#C9CCD6;}
	.st2{fill:#4D4D4D;}
	.st3{fill:#BFBFBF;}
	.st4{fill:#A6A6A6;}
	.st5{fill:#8C8C8C;}
	.st6{fill:#737373;}
	.st7{fill:#D9D9D9;}

  .path{
    -webkit-animation: tetris-float 5s infinite ease-in-out;
    -moz-animation: tetris-float 5s infinite ease-in-out;
    -o-animation: tetris-float 5s infinite ease-in-out;
    animation: tetris-float 5s infinite ease-in-out;
  }

  @-webkit-keyframes tetris-float {
      0% {
          -webkit-transform: translate(10px, 0px) scale(0.90);
          -moz-transform: translate(10px, 0px) scale(0.90);
          -ms-transform: translate(10px, 0px) scale(0.90);
          transform: translate(10px, 0px) scale(0.90);
      }
      65% {
          -webkit-transform: translate(30px, -10px) scale(1.0);
          -moz-transform: translate(30px, -10px) scale(1.0);
          -ms-transform: translate(30px, -10px) scale(1.0);
          transform: translate(30px, -10px) scale(1.0);
      }
      100% {
          -webkit-transform: translate(10px, 0px) scale(0.90);
          -moz-transform: translate(10px, 0px) scale(0.90);
          -ms-transform: translate(10px, 0px) scale(0.90);
          transform: translate(10px, 0px) scale(0.90);
      }
  }

  @-moz-keyframes tetris-float {
      0% {
          -webkit-transform: translate(10px, 0px) scale(0.90);
          -moz-transform: translate(10px, 0px) scale(0.90);
          -ms-transform: translate(10px, 0px) scale(0.90);
          transform: translate(10px, 0px) scale(0.90);
      }
      65% {
          -webkit-transform: translate(30px, -10px) scale(1.0);
          -moz-transform: translate(30px, -10px) scale(1.0);
          -ms-transform: translate(30px, -10px) scale(1.0);
          transform: translate(30px, -10px) scale(1.0);
      }
      100% {
          -webkit-transform: translate(10px, 0px) scale(0.90);
          -moz-transform: translate(10px, 0px) scale(0.90);
          -ms-transform: translate(10px, 0px) scale(0.90);
          transform: translate(10px, 0px) scale(0.90);
      }
  }

  @-o-keyframes tetris-float {
     0% {
          -webkit-transform: translate(10px, 0px) scale(0.90);
          -moz-transform: translate(10px, 0px) scale(0.90);
          -ms-transform: translate(10px, 0px) scale(0.90);
          transform: translate(10px, 0px) scale(0.90);
      }
      65% {
          -webkit-transform: translate(30px, -10px) scale(1.0);
          -moz-transform: translate(30px, -10px) scale(1.0);
          -ms-transform: translate(30px, -10px) scale(1.0);
          transform: translate(30px, -10px) scale(1.0);
      }
      100% {
          -webkit-transform: translate(10px, 0px) scale(0.90);
          -moz-transform: translate(10px, 0px) scale(0.90);
          -ms-transform: translate(10px, 0px) scale(0.90);
          transform: translate(10px, 0px) scale(0.90);
      }
  }

  @keyframes tetris-float {
      0% {
          -webkit-transform: translate(10px, 0px) scale(0.90);
          -moz-transform: translate(10px, 0px) scale(0.90);
          -ms-transform: translate(10px, 0px) scale(0.90);
          transform: translate(10px, 0px) scale(0.90);
      }
      65% {
          -webkit-transform: translate(30px, -10px) scale(1.0);
          -moz-transform: translate(30px, -10px) scale(1.0);
          -ms-transform: translate(30px, -10px) scale(1.0);
          transform: translate(30px, -10px) scale(1.0);
      }
      100% {
          -webkit-transform: translate(10px, 0px) scale(0.90);
          -moz-transform: translate(10px, 0px) scale(0.90);
          -ms-transform: translate(10px, 0px) scale(0.90);
          transform: translate(10px, 0px) scale(0.90);
      }
  }
</style>
<g>
	<path class="st0" d="M218,106.1c0,5.5-47.3,8.4-106.8,8.4S2,111.7,2,106.1c0-5.5,48.6-13.6,108.1-13.6S218,100.6,218,106.1z"/>
	<path class="st1" d="M22,87.5h30v16c0,2.2,1.8,4,4,4s4-1.8,4-4v-16h8c2.2,0,4-1.8,4-4s-1.8-4-4-4h-8v-54c0-2.2-1.8-4-4-4
		s-3.5,2-3.5,2L18.4,81.4c-1.1,1.9-0.5,4.3,1.4,5.5C20.9,87.5,22,87.5,22,87.5z M28.8,79.5L52,40.2v39.3H28.8z"/>
	<polygon class="st2" points="137.2,95.2 111,114.5 81.5,95.1 115.5,93.1 	"/>
	<path class="st1" d="M87.6,33.5v57c0,2.2,1.8,4,4,4h40c2.2,0,4-1.8,4-4v-57c0-2.2-1.8-4-4-4h-40C89.4,29.5,87.6,31.3,87.6,33.5z
		 M127.6,86.5h-32v-49h32V86.5z"/>
	<g>
		<polygon class="st3" points="135.9,67 111.2,77.6 111.2,111 135.9,95.1 		"/>
		<polygon class="st4" points="86.4,67 86.4,95.1 111.2,111 111.2,77.6 		"/>
		<polyline class="st5" points="86.5,67 111.2,77.6 111.2,61 86.4,67 		"/>
		<polyline class="st6" points="135.9,67 111.2,61 111.2,77.6 135.9,67 		"/>
		<g>
			<polygon class="st7" points="99,90.2 75.2,75.3 86.4,67 111.2,77.6 			"/>
		</g>
		<path class="st7" d="M100.3,96.2l-0.4-1L99.6,95l-0.3,0.4c0,0-0.3-0.5-0.4-0.8l-0.2-0.1c0,0.2-0.1,0.5-0.1,0.5l-0.2-0.7l-0.9-0.5
			l-0.7,0.3l-0.2-0.8l0,0l-0.2,0.8L96,93l-0.2-0.1l-0.1,0.4v0.8l-0.2-0.4l-0.4-1.1L95,92.5v7.4l6,3.9v-7.9l-0.3-0.2L100.3,96.2z"/>
		<g>
			<polygon class="st7" points="123.3,90.2 147.2,75.3 135.9,67 111.2,77.6 			"/>
		</g>
	</g>
	<g>
		<polygon class="st7 path" points="153,10.6 157.8,13.3 166.2,8.6 159.3,14.1 164.9,17 170.1,5.5 		"/>
		<polygon class="st7 path" points="159.1,14.8 158.5,18.4 161.2,15.9 		"/>
	</g>
	<g>
		<path class="st7" d="M154.7,20L154.7,20c-0.3,0-0.5,0.2-0.5,0.5c0,0,0,0.4-0.1,0.9c0,0.3,0.1,0.5,0.4,0.6h0.1
			c0.2,0,0.5-0.2,0.5-0.4c0.1-0.6,0.1-1.1,0.1-1.1C155.2,20.2,155,20,154.7,20z"/>
		<path class="st7" d="M140.3,36.8c-0.5,0.4-1.1,0.8-1.6,1.2c-0.2,0.2-0.3,0.5-0.1,0.7c0.1,0.1,0.2,0.2,0.4,0.2c0.1,0,0.2,0,0.3-0.1
			c0.5-0.4,1.1-0.8,1.6-1.3c0.2-0.2,0.2-0.5,0.1-0.7C140.9,36.7,140.6,36.6,140.3,36.8z"/>
		<path class="st7" d="M142.4,26c0.1,0,0.3-0.1,0.4-0.2c0.4-0.5,0.9-0.9,1.4-1.1c0.3-0.1,0.4-0.4,0.2-0.7c-0.1-0.3-0.4-0.4-0.7-0.2
			c-0.6,0.3-1.2,0.8-1.7,1.4c-0.2,0.2-0.1,0.5,0.1,0.7C142.2,26,142.3,26,142.4,26z"/>
		<path class="st7" d="M137.1,39.2c-0.6,0.4-1.2,0.8-1.7,1.1c-0.2,0.1-0.3,0.5-0.2,0.7s0.3,0.2,0.4,0.2c0.1,0,0.2,0,0.3-0.1
			c0.5-0.3,1.1-0.7,1.7-1.1c0.2-0.2,0.3-0.5,0.1-0.7C137.7,39.1,137.4,39.1,137.1,39.2z"/>
		<path class="st7" d="M145.8,24.6c0.6,0.2,0.9,0.5,1.1,1c0.1,0.2,0.3,0.3,0.5,0.3c0.1,0,0.1,0,0.2,0c0.3-0.1,0.4-0.4,0.3-0.6
			c-0.3-0.8-0.9-1.4-1.8-1.6c-0.3-0.1-0.5,0.1-0.6,0.3C145.4,24.2,145.5,24.5,145.8,24.6z"/>
		<path class="st7" d="M143.2,30.1c-0.2,0-0.4,0-0.5-0.1c-0.3-0.1-0.5,0.1-0.6,0.4s0.1,0.5,0.4,0.6c0.2,0,0.5,0.1,0.7,0.1
			c0.4,0,0.9-0.1,1.5-0.2c0.3-0.1,0.4-0.3,0.4-0.6c-0.1-0.3-0.3-0.4-0.6-0.4C144,30.1,143.5,30.1,143.2,30.1z"/>
		<path class="st7" d="M148.1,28.5c-0.1,0.1-0.3,0.1-0.4,0.2c0.1-0.4,0.2-0.9,0.3-1.3c0-0.3-0.1-0.5-0.4-0.6c-0.3,0-0.5,0.1-0.6,0.4
			c-0.1,0.6-0.3,1.2-0.5,1.8v0.1c0,0-0.1,0-0.1,0.1c-0.3,0.1-0.4,0.4-0.3,0.6c0.1,0.2,0.3,0.3,0.5,0.3c0.1,0,0.1,0,0.2,0
			c0.7-0.3,1.3-0.5,1.9-0.8c0.2-0.1,0.3-0.4,0.2-0.7C148.7,28.5,148.4,28.4,148.1,28.5z"/>
		<path class="st7" d="M151.3,26.3c-0.5,0.4-1,0.8-1.5,1.2c-0.2,0.2-0.3,0.5-0.1,0.7c0.1,0.1,0.3,0.2,0.4,0.2c0.1,0,0.2,0,0.3-0.1
			c0.6-0.4,1.1-0.9,1.6-1.3c0.2-0.2,0.2-0.5,0-0.7S151.5,26.1,151.3,26.3z"/>
		<path class="st7" d="M141.6,28.7c0-0.4,0.1-0.8,0.3-1.3c0.1-0.3,0-0.5-0.3-0.6s-0.5,0-0.6,0.3c-0.2,0.6-0.3,1.1-0.3,1.6
			c0,0.2,0,0.5,0.1,0.7s0.3,0.4,0.5,0.4h0.1c0.3-0.1,0.4-0.3,0.4-0.6C141.6,29,141.6,28.8,141.6,28.7z"/>
		<path class="st7" d="M154.2,22.9c-0.3-0.1-0.5,0-0.7,0.2c-0.3,0.6-0.6,1.1-1,1.7c-0.2,0.2-0.1,0.5,0.1,0.7
			c0.1,0.1,0.2,0.1,0.3,0.1c0.2,0,0.3-0.1,0.4-0.2c0.4-0.6,0.8-1.2,1.1-1.8C154.6,23.4,154.5,23.1,154.2,22.9z"/>
		<path class="st7" d="M146.3,30.8c-0.2-0.1-0.5-0.1-0.7,0.2c-0.3,0.6-0.7,1.1-1.1,1.6c-0.2,0.2-0.1,0.5,0.1,0.7
			c0.1,0.1,0.2,0.1,0.3,0.1c0.2,0,0.3-0.1,0.4-0.2c0.4-0.6,0.8-1.2,1.1-1.7C146.6,31.2,146.5,30.9,146.3,30.8z"/>
		<path class="st7" d="M143.3,34.1c-0.2,0.2-0.3,0.4-0.5,0.5c-0.3,0.3-0.6,0.6-0.9,0.9c-0.2,0.2-0.2,0.5,0,0.7
			c0.1,0.1,0.2,0.2,0.4,0.2c0.1,0,0.2,0,0.3-0.1c0.3-0.3,0.6-0.6,0.9-0.9c0.2-0.2,0.4-0.4,0.6-0.6c0.2-0.2,0.2-0.5,0-0.7
			C143.8,33.9,143.5,33.9,143.3,34.1z"/>
		<path class="st7" d="M133.7,41.5c-0.6,0.3-0.9,0.5-1,0.5c-0.2,0.2-0.3,0.5-0.1,0.7c0.1,0.1,0.3,0.2,0.4,0.2c0.1,0,0.2,0,0.3-0.1
			c0,0,0.3-0.2,0.8-0.5c0.2-0.1,0.3-0.4,0.2-0.7C134.2,41.4,133.9,41.3,133.7,41.5z"/>
	</g>
	<path class="st1" d="M152,87.5h30v16c0,2.2,1.8,4,4,4s4-1.8,4-4v-16h8c2.2,0,4-1.8,4-4s-1.8-4-4-4h-8v-54c0-2.2-1.8-4-4-4
		s-3.5,2-3.5,2l-34.1,57.9c-1.1,1.9-0.5,4.3,1.4,5.5C150.9,87.5,152,87.5,152,87.5z M158.9,79.5l23.2-39.3v39.3H158.9z"/>
</g>
</svg>
