<?xml version="1.0" encoding="utf-8"?>
<!-- Generator: Adobe Illustrator 21.1.0, SVG Export Plug-In . SVG Version: 6.00 Build 0)  -->
<svg version="1.1" id="图层_1" xmlns="http://www.w3.org/2000/svg" xmlns:xlink="http://www.w3.org/1999/xlink" x="0px" y="0px"
	 viewBox="0 0 220 120" style="enable-background:new 0 0 220 120;" xml:space="preserve">
<style type="text/css">
	.st0{fill:#BFBFBF;}
	.st1{fill:#4D4D4D;}
	.st2{fill:#737373;}
	.st3{fill:#999999;}
	.st4{fill:#E6E6E6;}
	.st5{fill:#B3B3B3;}
	.st6{fill:#C2C2C2;}
	.st7{fill:#868DA0;}
	.st8{fill:#C9CCD6;}
</style>
<path class="st0" d="M179,33.1c-0.1,0-0.1-0.1-0.1-0.1V20.4c0-0.1,0.1-0.1,0.1-0.1l0.1,0.1V33C179.1,33.1,179.1,33.1,179,33.1z"/>
<path class="st1" d="M181.9,31.6c-0.1-0.1-0.2,0-0.3,0l-0.4,0.6l-1.5,0.5l0,0l0.6-1.2l-0.6-1.5c0-0.1-0.1-0.1-0.2-0.1
	c-0.1,0-0.1,0.2-0.1,0.2l0.5,1.3l-0.4,0.8c-0.1-0.2-0.3-0.4-0.5-0.4s-0.4,0.2-0.5,0.4l-0.5-0.8l0.5-1.3c0-0.1,0-0.2-0.1-0.2
	s-0.2,0-0.2,0.1l-0.6,1.5l0.7,1.2l0,0l-1.5-0.5l-0.4-0.6c-0.1-0.1-0.2-0.1-0.3,0s-0.1,0.2,0,0.3l0.5,0.7l1.7,0.5c0,0.1,0,0.1,0,0.1
	l-1.4,0.8l-0.3,0.6c0,0.1,0,0.2,0.1,0.3h0.1c0.1,0,0.1,0,0.2-0.1l0.2-0.5l1.1-0.7c0,0.1,0,0.2,0.1,0.3l-0.8,0.7v0.8L178,36h0.1
	c0.1,0,0.1,0,0.1-0.1c0.1-0.1,0.1-0.2,0-0.3l-0.4-0.3v-0.4l0.6-0.6c0.2,0.2,0.4,0.3,0.6,0.3c0.2,0,0.4-0.1,0.6-0.3l0.6,0.5v0.4
	l-0.4,0.3c-0.1,0.1-0.1,0.2,0,0.3l0.1,0.1h0.1l0.5-0.5v-0.8l-0.7-0.7c0-0.1,0-0.2,0.1-0.3l1.1,0.7l0.2,0.5c0,0.1,0.1,0.1,0.2,0.1
	h0.1c0.1,0,0.1-0.2,0.1-0.3l-0.3-0.6l-1.3-0.8c0-0.1,0-0.1,0-0.2l1.6-0.5l0.5-0.7C182,31.8,182,31.7,181.9,31.6z"/>
<g>
	<rect x="160" y="51" class="st2" width="32" height="2"/>
	
		<rect x="175.1" y="43.5" transform="matrix(6.428851e-02 -0.9979 0.9979 6.428851e-02 104.8985 231.8726)" class="st2" width="2" height="33"/>
	<g>
		<rect x="170" y="40.5" transform="matrix(0.1726 -0.985 0.985 0.1726 90.9569 219.2888)" class="st3" width="12" height="30"/>
	</g>
	<g>
		<path class="st4" d="M163.1,48.2l-1.7,9.8l27.6,4.8l1.7-9.8L163.1,48.2z M166.5,57.4c0,0.3-0.3,0.5-0.6,0.4
			c-0.3,0-0.5-0.3-0.4-0.6l1.2-6.9c0-0.3,0.3-0.5,0.6-0.4c0.3,0,0.5,0.3,0.4,0.6L166.5,57.4z M169.5,57.9c0,0.3-0.3,0.5-0.6,0.4
			c-0.3,0-0.5-0.3-0.4-0.6l1.2-6.9c0-0.3,0.3-0.5,0.6-0.4s0.5,0.3,0.4,0.6L169.5,57.9z M172.4,58.4c0,0.3-0.3,0.5-0.6,0.4
			c-0.3,0-0.5-0.3-0.4-0.6l1.2-6.9c0-0.3,0.3-0.5,0.6-0.4c0.3,0,0.5,0.3,0.4,0.6L172.4,58.4z M175.4,58.9c0,0.3-0.3,0.5-0.6,0.4
			c-0.3,0-0.5-0.3-0.4-0.6l1.2-6.9c0-0.3,0.3-0.5,0.6-0.4c0.3,0,0.5,0.3,0.4,0.6L175.4,58.9z M178.4,59.5c0,0.3-0.3,0.5-0.6,0.4
			c-0.3,0-0.5-0.3-0.4-0.6l1.2-6.9c0-0.3,0.3-0.5,0.6-0.4c0.3,0,0.5,0.3,0.4,0.6L178.4,59.5z M181.3,60c0,0.3-0.3,0.5-0.6,0.4
			c-0.3,0-0.5-0.3-0.4-0.6l1.2-6.9c0-0.3,0.3-0.5,0.6-0.4c0.3,0,0.5,0.3,0.4,0.6L181.3,60z M184.3,60.5c0,0.3-0.3,0.5-0.6,0.4
			c-0.3,0-0.5-0.3-0.4-0.6l1.2-6.9c0-0.3,0.3-0.5,0.6-0.4c0.3,0,0.5,0.3,0.4,0.6L184.3,60.5z M187.2,61c0,0.3-0.3,0.5-0.6,0.4
			c-0.3,0-0.5-0.3-0.4-0.6l1.2-6.9c0-0.3,0.3-0.5,0.6-0.4c0.3,0,0.5,0.3,0.4,0.6L187.2,61z"/>
	</g>
	<ellipse transform="matrix(0.1726 -0.985 0.985 0.1726 85.4407 204.7037)" class="st5" cx="164.6" cy="51.5" rx="1" ry="1"/>
</g>
<path class="st6" d="M153.9,14.9L153.9,14.9L153.9,14.9L153.9,14.9c0-0.1,0-0.1,0-0.1l0,0l0,0l0,0l0,0c-11.4,3.1-20.9-0.8-21-0.9
	c-0.1,0-0.1,0-0.2,0.1c0,0.1,0,0.1,0.1,0.2c0,0,0.4,0.2,1.2,0.4c0.1,0.1,2.8,2.4,5.3,5.2c-0.4,0-1.2,0-1.7,0.4
	c-0.3,0.2-0.5,0.6-0.7,1c-1.4-3.7-3.1-6.3-3.1-6.3c0-0.1-0.1-0.1-0.2,0c-0.1,0-0.1,0.1,0,0.2c0,0,1.7,2.7,3.2,6.5
	c-0.4,0-1.1-0.1-1.7,0.3c-0.4,0.3-0.7,0.8-0.8,1.4c0,0.1,0,0.1,0.1,0.1l0,0c0.1,0,0.1,0,0.1-0.1c0.1-0.6,0.3-1,0.7-1.2
	c0.6-0.4,1.4-0.3,1.6-0.3c0.4,1.1,0.8,2.3,1.1,3.5c-0.4,0-1.4-0.1-2.3,0.5c-0.7,0.5-1.1,1.2-1.2,2.2c0,0.1,0,0.1,0.1,0.1l0,0
	c0.1,0,0.1,0,0.1-0.1c0.2-0.9,0.5-1.6,1.1-2c0.8-0.6,1.9-0.5,2.2-0.5c0.6,2.6,0.9,5.4,0.5,8.3l0,0c-2.5,3.9-4.3,7.8-4.5,11
	c0,0.1,0,0.1,0.1,0.1l0,0c0.1,0,0.1-0.1,0.1-0.1C134.8,34.2,153.7,15.2,153.9,14.9C153.9,15,153.9,15,153.9,14.9
	C153.9,15,153.9,15,153.9,14.9z M147.5,21.6c-0.5-0.8-1.4-1.5-2.5-2.2c-0.1-0.8,0.1-1.5,0.5-2c1-1.2,3.2-1.3,3.2-1.3l0,0
	c1.5-0.2,3-0.5,4.6-0.9C152.6,15.9,150.3,18.4,147.5,21.6z M139.6,19.9c-0.1-1.5,1.9-2,2.2-2c1,0.5,1.9,1,2.8,1.5
	c-0.7,0-1.8,0.1-2.5,0.9c-0.5,0.5-0.6,1.3-0.5,2.2C140.9,21.5,140.3,20.7,139.6,19.9z M141.6,16.6c-0.1,0.2-0.1,0.5,0,0.8
	c-1.7-0.8-3.5-1.5-4.9-2.1c1.5,0.3,3.3,0.6,5.4,0.8C141.9,16.2,141.7,16.4,141.6,16.6z M142.2,20.4c0.9-0.9,2.6-0.8,2.8-0.8
	c1.1,0.7,1.9,1.4,2.4,2.2c-1.3,1.5-2.6,3.1-4,4.9c-0.2-1.2-0.7-2.5-1.6-3.8c0,0,0,0,0-0.1C141.6,21.7,141.7,20.9,142.2,20.4z
	 M144.7,16.2c0.7,0,1.4,0,2.2-0.1c-0.5,0.2-1.1,0.5-1.5,1c-0.5,0.5-0.6,1.2-0.6,2c-0.9-0.6-1.8-1.1-2.8-1.6
	c-0.2-0.4-0.2-0.7-0.1-0.9c0.2-0.4,0.9-0.5,0.9-0.5l0,0C143.4,16.2,144.1,16.2,144.7,16.2z M134.5,14.8c1.2,0.4,4.1,1.5,6.9,2.8
	c-0.7,0.2-2,0.7-2.1,1.9C137.4,17.4,135.4,15.6,134.5,14.8z M137.6,20.4c0.7-0.5,1.6-0.3,1.8-0.3c0.7,0.8,1.4,1.7,1.9,2.6
	c-0.5,0-1.4,0-2.2,0.5c-0.6,0.4-0.9,1-1.1,1.8c-0.3-1.2-0.6-2.3-1-3.3c0,0,0,0,0-0.1C137,21,137.2,20.6,137.6,20.4z M138.1,25.4
	L138.1,25.4L138.1,25.4L138.1,25.4L138.1,25.4c0.2-0.9,0.6-1.6,1.2-2c0.9-0.6,2-0.5,2.3-0.5c0.9,1.4,1.5,2.7,1.6,3.9l0,0
	c-1.6,2.1-3.2,4.2-4.5,6.4C138.9,30.6,138.7,27.9,138.1,25.4z"/>
<path class="st7" d="M218,99.6c0,5.5-47.3,8.4-106.8,8.4S2,105.2,2,99.6C2,94.1,50.6,86,110.1,86S218,94.1,218,99.6z"/>
<path class="st0" d="M210.9,97c-0.1-0.1-0.3-0.1-0.4-0.1l0,0c-4.9-2.3-10.5-18.1-10.6-18.3c0-0.1-0.1-0.1-0.2-0.1
	c-0.1,0-0.1,0.1-0.1,0.2c0.1,0.3,1.2,3.4,2.8,7c0,0.3-0.2,1.7-0.8,3.6c-1.9-0.3-1.8-2-1.8-2.1s0-0.1-0.1-0.1s-0.1,0-0.1,0.1
	c0,0-0.2,1.9,2,2.4c-0.5,1.6-1.3,3.5-2.5,5.3l0,0c-0.7-0.1-1.1-0.1-1.2-0.1c-0.1,0-0.1,0.1-0.1,0.1c0,0.1,0.1,0.1,0.1,0.1
	c0.1,0,7.5,0.3,12.9,2.3l0,0c0.1,0,0.1,0,0.1-0.1C211,97.1,211,97.1,210.9,97z M209.5,96.6c-1.1-0.3-2.2-0.6-3.3-0.8l0,0
	c-0.6-0.1-0.9-0.3-1.1-0.7c-0.2-0.5-0.1-1,0-1.2c0.8-0.4,1.2-0.7,1.4-0.9C207.4,94.5,208.4,95.8,209.5,96.6z M203.7,93.1
	c0.2,0.3,0.5,0.6,0.9,0.7c-1,0.4-2.5,0.9-4.7,1c1.7-1,2.9-1.9,3.7-2.8C203.5,92.4,203.5,92.8,203.7,93.1z M205,93.7
	c-0.5-0.1-0.9-0.3-1.1-0.7c-0.3-0.6,0-1.4,0-1.4l0,0c0.5-0.6,0.7-1,0.9-1.3c0.5,0.9,1,1.7,1.5,2.5C206.1,93,205.7,93.3,205,93.7z
	 M199.4,94.8c1-1.6,1.8-3.3,2.3-4.8c0.1,0.6,0.6,1.4,1.8,1.7C202.8,92.6,201.5,93.7,199.4,94.8z M204.7,94.1
	c-0.1,0.3-0.1,0.7,0.1,1.1c0.1,0.1,0.2,0.3,0.3,0.4c-1.5-0.3-3-0.5-4.2-0.6C202.6,94.8,203.9,94.5,204.7,94.1z M204.6,90.1
	c-0.1,0.2-0.3,0.7-0.9,1.4c-1.9-0.4-1.8-2-1.8-2l0,0c0.5-1.5,0.7-2.7,0.8-3.3C203.3,87.4,203.9,88.8,204.6,90.1z"/>
<path class="st8" d="M87,17v78c0,2.2,1.8,4,4,4h40c2.2,0,4-1.8,4-4V17c0-2.2-1.8-4-4-4H91C88.8,13,87,14.8,87,17z M127,91H95V21h32
	V91z"/>
<path class="st8" d="M152,17v78c0,2.2,1.8,4,4,4h40c2.2,0,4-1.8,4-4V17c0-2.2-1.8-4-4-4h-40C153.8,13,152,14.8,152,17z M192,91h-32
	V21h32V91z"/>
<g>
	<rect x="95" y="23" class="st2" width="32" height="2"/>
	<rect x="95" y="31" class="st2" width="32" height="2"/>
	<g>
		<rect x="96" y="22" class="st3" width="30" height="12"/>
	</g>
	<g>
		<path class="st4" d="M97,23v10h28V23H97z M102,31.5c0,0.3-0.2,0.5-0.5,0.5s-0.5-0.2-0.5-0.5v-7c0-0.3,0.2-0.5,0.5-0.5
			s0.5,0.2,0.5,0.5V31.5z M105,31.5c0,0.3-0.2,0.5-0.5,0.5s-0.5-0.2-0.5-0.5v-7c0-0.3,0.2-0.5,0.5-0.5s0.5,0.2,0.5,0.5V31.5z
			 M108,31.5c0,0.3-0.2,0.5-0.5,0.5s-0.5-0.2-0.5-0.5v-7c0-0.3,0.2-0.5,0.5-0.5s0.5,0.2,0.5,0.5V31.5z M111,31.5
			c0,0.3-0.2,0.5-0.5,0.5s-0.5-0.2-0.5-0.5v-7c0-0.3,0.2-0.5,0.5-0.5s0.5,0.2,0.5,0.5V31.5z M114,31.5c0,0.3-0.2,0.5-0.5,0.5
			s-0.5-0.2-0.5-0.5v-7c0-0.3,0.2-0.5,0.5-0.5s0.5,0.2,0.5,0.5V31.5z M117,31.5c0,0.3-0.2,0.5-0.5,0.5s-0.5-0.2-0.5-0.5v-7
			c0-0.3,0.2-0.5,0.5-0.5s0.5,0.2,0.5,0.5V31.5z M120,31.5c0,0.3-0.2,0.5-0.5,0.5s-0.5-0.2-0.5-0.5v-7c0-0.3,0.2-0.5,0.5-0.5
			s0.5,0.2,0.5,0.5V31.5z M123,31.5c0,0.3-0.2,0.5-0.5,0.5s-0.5-0.2-0.5-0.5v-7c0-0.3,0.2-0.5,0.5-0.5s0.5,0.2,0.5,0.5V31.5z"/>
	</g>
	<circle class="st5" cx="99" cy="26" r="1"/>
</g>
<g>
	<rect x="95" y="37" class="st2" width="32" height="2"/>
	<rect x="95" y="45" class="st2" width="32" height="2"/>
	<g>
		<rect x="96" y="36" class="st3" width="30" height="12"/>
	</g>
	<g>
		<path class="st4" d="M97,37v10h28V37H97z M102,45.5c0,0.3-0.2,0.5-0.5,0.5s-0.5-0.2-0.5-0.5v-7c0-0.3,0.2-0.5,0.5-0.5
			s0.5,0.2,0.5,0.5V45.5z M105,45.5c0,0.3-0.2,0.5-0.5,0.5s-0.5-0.2-0.5-0.5v-7c0-0.3,0.2-0.5,0.5-0.5s0.5,0.2,0.5,0.5V45.5z
			 M108,45.5c0,0.3-0.2,0.5-0.5,0.5s-0.5-0.2-0.5-0.5v-7c0-0.3,0.2-0.5,0.5-0.5s0.5,0.2,0.5,0.5V45.5z M111,45.5
			c0,0.3-0.2,0.5-0.5,0.5s-0.5-0.2-0.5-0.5v-7c0-0.3,0.2-0.5,0.5-0.5s0.5,0.2,0.5,0.5V45.5z M114,45.5c0,0.3-0.2,0.5-0.5,0.5
			s-0.5-0.2-0.5-0.5v-7c0-0.3,0.2-0.5,0.5-0.5s0.5,0.2,0.5,0.5V45.5z M117,45.5c0,0.3-0.2,0.5-0.5,0.5s-0.5-0.2-0.5-0.5v-7
			c0-0.3,0.2-0.5,0.5-0.5s0.5,0.2,0.5,0.5V45.5z M120,45.5c0,0.3-0.2,0.5-0.5,0.5s-0.5-0.2-0.5-0.5v-7c0-0.3,0.2-0.5,0.5-0.5
			s0.5,0.2,0.5,0.5V45.5z M123,45.5c0,0.3-0.2,0.5-0.5,0.5s-0.5-0.2-0.5-0.5v-7c0-0.3,0.2-0.5,0.5-0.5s0.5,0.2,0.5,0.5V45.5z"/>
	</g>
	<circle class="st5" cx="99" cy="40" r="1"/>
</g>
<g>
	<rect x="95" y="51" class="st2" width="32" height="2"/>
	<rect x="95" y="59" class="st2" width="32" height="2"/>
	<g>
		<rect x="96" y="50" class="st3" width="30" height="12"/>
	</g>
	<g>
		<path class="st4" d="M97,51v10h28V51H97z M102,59.5c0,0.3-0.2,0.5-0.5,0.5s-0.5-0.2-0.5-0.5v-7c0-0.3,0.2-0.5,0.5-0.5
			s0.5,0.2,0.5,0.5V59.5z M105,59.5c0,0.3-0.2,0.5-0.5,0.5s-0.5-0.2-0.5-0.5v-7c0-0.3,0.2-0.5,0.5-0.5s0.5,0.2,0.5,0.5V59.5z
			 M108,59.5c0,0.3-0.2,0.5-0.5,0.5s-0.5-0.2-0.5-0.5v-7c0-0.3,0.2-0.5,0.5-0.5s0.5,0.2,0.5,0.5V59.5z M111,59.5
			c0,0.3-0.2,0.5-0.5,0.5s-0.5-0.2-0.5-0.5v-7c0-0.3,0.2-0.5,0.5-0.5s0.5,0.2,0.5,0.5V59.5z M114,59.5c0,0.3-0.2,0.5-0.5,0.5
			s-0.5-0.2-0.5-0.5v-7c0-0.3,0.2-0.5,0.5-0.5s0.5,0.2,0.5,0.5V59.5z M117,59.5c0,0.3-0.2,0.5-0.5,0.5s-0.5-0.2-0.5-0.5v-7
			c0-0.3,0.2-0.5,0.5-0.5s0.5,0.2,0.5,0.5V59.5z M120,59.5c0,0.3-0.2,0.5-0.5,0.5s-0.5-0.2-0.5-0.5v-7c0-0.3,0.2-0.5,0.5-0.5
			s0.5,0.2,0.5,0.5V59.5z M123,59.5c0,0.3-0.2,0.5-0.5,0.5s-0.5-0.2-0.5-0.5v-7c0-0.3,0.2-0.5,0.5-0.5s0.5,0.2,0.5,0.5V59.5z"/>
	</g>
	<circle class="st5" cx="99" cy="54" r="1"/>
</g>
<g>
	<rect x="95" y="65" class="st2" width="32" height="2"/>
	<rect x="95" y="73" class="st2" width="32" height="2"/>
	<g>
		<rect x="96" y="64" class="st3" width="30" height="12"/>
	</g>
	<g>
		<path class="st4" d="M97,65v10h28V65H97z M102,73.5c0,0.3-0.2,0.5-0.5,0.5s-0.5-0.2-0.5-0.5v-7c0-0.3,0.2-0.5,0.5-0.5
			s0.5,0.2,0.5,0.5V73.5z M105,73.5c0,0.3-0.2,0.5-0.5,0.5s-0.5-0.2-0.5-0.5v-7c0-0.3,0.2-0.5,0.5-0.5s0.5,0.2,0.5,0.5V73.5z
			 M108,73.5c0,0.3-0.2,0.5-0.5,0.5s-0.5-0.2-0.5-0.5v-7c0-0.3,0.2-0.5,0.5-0.5s0.5,0.2,0.5,0.5V73.5z M111,73.5
			c0,0.3-0.2,0.5-0.5,0.5s-0.5-0.2-0.5-0.5v-7c0-0.3,0.2-0.5,0.5-0.5s0.5,0.2,0.5,0.5V73.5z M114,73.5c0,0.3-0.2,0.5-0.5,0.5
			s-0.5-0.2-0.5-0.5v-7c0-0.3,0.2-0.5,0.5-0.5s0.5,0.2,0.5,0.5V73.5z M117,73.5c0,0.3-0.2,0.5-0.5,0.5s-0.5-0.2-0.5-0.5v-7
			c0-0.3,0.2-0.5,0.5-0.5s0.5,0.2,0.5,0.5V73.5z M120,73.5c0,0.3-0.2,0.5-0.5,0.5s-0.5-0.2-0.5-0.5v-7c0-0.3,0.2-0.5,0.5-0.5
			s0.5,0.2,0.5,0.5V73.5z M123,73.5c0,0.3-0.2,0.5-0.5,0.5s-0.5-0.2-0.5-0.5v-7c0-0.3,0.2-0.5,0.5-0.5s0.5,0.2,0.5,0.5V73.5z"/>
	</g>
	<circle class="st5" cx="99" cy="68" r="1"/>
</g>
<g>
	<rect x="95" y="79" class="st2" width="32" height="2"/>
	<rect x="95" y="87" class="st2" width="32" height="2"/>
	<g>
		<rect x="96" y="78" class="st3" width="30" height="12"/>
	</g>
	<g>
		<path class="st4" d="M97,79v10h28V79H97z M102,87.5c0,0.3-0.2,0.5-0.5,0.5s-0.5-0.2-0.5-0.5v-7c0-0.3,0.2-0.5,0.5-0.5
			s0.5,0.2,0.5,0.5V87.5z M105,87.5c0,0.3-0.2,0.5-0.5,0.5s-0.5-0.2-0.5-0.5v-7c0-0.3,0.2-0.5,0.5-0.5s0.5,0.2,0.5,0.5V87.5z
			 M108,87.5c0,0.3-0.2,0.5-0.5,0.5s-0.5-0.2-0.5-0.5v-7c0-0.3,0.2-0.5,0.5-0.5s0.5,0.2,0.5,0.5V87.5z M111,87.5
			c0,0.3-0.2,0.5-0.5,0.5s-0.5-0.2-0.5-0.5v-7c0-0.3,0.2-0.5,0.5-0.5s0.5,0.2,0.5,0.5V87.5z M114,87.5c0,0.3-0.2,0.5-0.5,0.5
			s-0.5-0.2-0.5-0.5v-7c0-0.3,0.2-0.5,0.5-0.5s0.5,0.2,0.5,0.5V87.5z M117,87.5c0,0.3-0.2,0.5-0.5,0.5s-0.5-0.2-0.5-0.5v-7
			c0-0.3,0.2-0.5,0.5-0.5s0.5,0.2,0.5,0.5V87.5z M120,87.5c0,0.3-0.2,0.5-0.5,0.5s-0.5-0.2-0.5-0.5v-7c0-0.3,0.2-0.5,0.5-0.5
			s0.5,0.2,0.5,0.5V87.5z M123,87.5c0,0.3-0.2,0.5-0.5,0.5s-0.5-0.2-0.5-0.5v-7c0-0.3,0.2-0.5,0.5-0.5s0.5,0.2,0.5,0.5V87.5z"/>
	</g>
	<circle class="st5" cx="99" cy="82" r="1"/>
</g>
<g>
	<rect x="160" y="65" class="st2" width="32" height="2"/>
	<rect x="160" y="73" class="st2" width="32" height="2"/>
	<g>
		<rect x="161" y="64" class="st3" width="30" height="12"/>
	</g>
	<g>
		<path class="st4" d="M162,65v10h28V65H162z M167,73.5c0,0.3-0.2,0.5-0.5,0.5s-0.5-0.2-0.5-0.5v-7c0-0.3,0.2-0.5,0.5-0.5
			s0.5,0.2,0.5,0.5V73.5z M170,73.5c0,0.3-0.2,0.5-0.5,0.5s-0.5-0.2-0.5-0.5v-7c0-0.3,0.2-0.5,0.5-0.5s0.5,0.2,0.5,0.5V73.5z
			 M173,73.5c0,0.3-0.2,0.5-0.5,0.5s-0.5-0.2-0.5-0.5v-7c0-0.3,0.2-0.5,0.5-0.5s0.5,0.2,0.5,0.5V73.5z M176,73.5
			c0,0.3-0.2,0.5-0.5,0.5s-0.5-0.2-0.5-0.5v-7c0-0.3,0.2-0.5,0.5-0.5s0.5,0.2,0.5,0.5V73.5z M179,73.5c0,0.3-0.2,0.5-0.5,0.5
			s-0.5-0.2-0.5-0.5v-7c0-0.3,0.2-0.5,0.5-0.5s0.5,0.2,0.5,0.5V73.5z M182,73.5c0,0.3-0.2,0.5-0.5,0.5s-0.5-0.2-0.5-0.5v-7
			c0-0.3,0.2-0.5,0.5-0.5s0.5,0.2,0.5,0.5V73.5z M185,73.5c0,0.3-0.2,0.5-0.5,0.5s-0.5-0.2-0.5-0.5v-7c0-0.3,0.2-0.5,0.5-0.5
			s0.5,0.2,0.5,0.5V73.5z M188,73.5c0,0.3-0.2,0.5-0.5,0.5s-0.5-0.2-0.5-0.5v-7c0-0.3,0.2-0.5,0.5-0.5s0.5,0.2,0.5,0.5V73.5z"/>
	</g>
	<circle class="st5" cx="164" cy="68" r="1"/>
</g>
<g>
	<rect x="160" y="79" class="st2" width="32" height="2"/>
	<rect x="160" y="87" class="st2" width="32" height="2"/>
	<g>
		<rect x="161" y="78" class="st3" width="30" height="12"/>
	</g>
	<g>
		<path class="st4" d="M162,79v10h28V79H162z M167,87.5c0,0.3-0.2,0.5-0.5,0.5s-0.5-0.2-0.5-0.5v-7c0-0.3,0.2-0.5,0.5-0.5
			s0.5,0.2,0.5,0.5V87.5z M170,87.5c0,0.3-0.2,0.5-0.5,0.5s-0.5-0.2-0.5-0.5v-7c0-0.3,0.2-0.5,0.5-0.5s0.5,0.2,0.5,0.5V87.5z
			 M173,87.5c0,0.3-0.2,0.5-0.5,0.5s-0.5-0.2-0.5-0.5v-7c0-0.3,0.2-0.5,0.5-0.5s0.5,0.2,0.5,0.5V87.5z M176,87.5
			c0,0.3-0.2,0.5-0.5,0.5s-0.5-0.2-0.5-0.5v-7c0-0.3,0.2-0.5,0.5-0.5s0.5,0.2,0.5,0.5V87.5z M179,87.5c0,0.3-0.2,0.5-0.5,0.5
			s-0.5-0.2-0.5-0.5v-7c0-0.3,0.2-0.5,0.5-0.5s0.5,0.2,0.5,0.5V87.5z M182,87.5c0,0.3-0.2,0.5-0.5,0.5s-0.5-0.2-0.5-0.5v-7
			c0-0.3,0.2-0.5,0.5-0.5s0.5,0.2,0.5,0.5V87.5z M185,87.5c0,0.3-0.2,0.5-0.5,0.5s-0.5-0.2-0.5-0.5v-7c0-0.3,0.2-0.5,0.5-0.5
			s0.5,0.2,0.5,0.5V87.5z M188,87.5c0,0.3-0.2,0.5-0.5,0.5s-0.5-0.2-0.5-0.5v-7c0-0.3,0.2-0.5,0.5-0.5s0.5,0.2,0.5,0.5V87.5z"/>
	</g>
	<circle class="st5" cx="164" cy="82" r="1"/>
</g>
<path class="st8" d="M41.8,42.7c-3.6,0-6.9,0.7-10.1,1.9c-0.3,0.1-0.6,0.2-0.9,0.4l2-20.9H62c2.2,0,4-1.8,4-4s-1.8-4-4-4H33.3
	c-0.4-1.5-1.7-2.8-3.4-3l0,0c-2.3-0.3-4.3,1.4-4.5,3.7L22.7,49c0,3.1,2.5,5.6,5.6,5.6c0.1,0,0.3,0,0.4,0c0.8-0.1,1.5-0.3,2.1-0.6
	c0.2-0.1,0.5-0.3,0.7-0.4c3.3-2,7.1-3,11.2-2.8c10.2,0.5,18.6,8.8,19.1,19c0.8,11.5-8.5,21.2-20,21.2C36,91,30.7,88.5,27,84.5
	c-1.6-1.7-4.2-1.8-5.9-0.2l0,0c-1.5,1.5-1.6,3.9-0.2,5.5c5.2,5.6,12.6,9.2,20.8,9.2C57.4,99,70,86.4,70,70.8S57.4,42.7,41.8,42.7z"
	/>
</svg>
