<?xml version="1.0" encoding="utf-8"?>
<!-- Generator: Adobe Illustrator 21.0.0, SVG Export Plug-In . SVG Version: 6.00 Build 0)  -->
<svg version="1.1" id="图层_1" xmlns="http://www.w3.org/2000/svg" xmlns:xlink="http://www.w3.org/1999/xlink" x="0px" y="0px"
	 viewBox="0 0 180 32" style="enable-background:new 0 0 180 32;" xml:space="preserve">
<style type="text/css">
	.st0{fill:#0088CC;}
	.st1{fill:#EB5050;}
.st8{-webkit-animation:load-logo 1.2s linear infinite;-moz-animation:load-logo 1.2s linear infinite;animation:load-logo 1.2s linear infinite;}
.st8:nth-child(1){-webkit-animation-delay:-0.1s;animation-delay:-0.1s;}
.st8:nth-child(2){-webkit-animation-delay:-0.3s;animation-delay:-0.3s;}
.st8:nth-child(3){-webkit-animation-delay:-0.5s;animation-delay:-0.5s;}
.st8:nth-child(4){-webkit-animation-delay:-0.7s;animation-delay:-0.7s;}
.st8:nth-child(5){-webkit-animation-delay:-0.9s;animation-delay:-0.9s;}
.st8:nth-child(6){-webkit-animation-delay:-0.11s;animation-delay:-0.11s;}
.st8:nth-child(7){-webkit-animation-delay:-0.13s;animation-delay:-0.13s;}
.st8:nth-child(8){-webkit-animation-delay:-0.15s;animation-delay:-0.15s;}
@-webkit-keyframes load-logo{
    3%{fill-opacity:1;}
    75%{fill-opacity:0.4;}
}
@keyframes load-logo{
    3%{fill-opacity:1;}
    75%{fill-opacity:0.4;}
}
</style>
<g>
	<path class="st0" d="M70.4,13H50.5c-0.7,0-1.2-0.5-1.2-1.2V8.2c0-0.7,0.5-1.2,1.2-1.2h19.3c1.7,0,3-1.3,3-3s-1.4-3-3-3H49.3
		c-3.3,0-6,2.7-6,6v6c0,3.3,2.7,6,6,6h21.1c1.7,0,3-1.3,3-3S72.1,13,70.4,13z"/>
	<path class="st0" d="M70.4,25h-29c-0.7,0-1.2-0.5-1.2-1.2V13c0-3.3-2.7-6-6-6H16.1c-3.3,0-6,2.7-6,6v15c0,1.7,1.4,3,3,3s3-1.3,3-3
		V14.2c0-0.7,0.5-1.2,1.2-1.2H33c0.7,0,1.2,0.5,1.2,1.2V28c0,1.7,1.4,3,3,3h33.2c1.7,0,3-1.3,3-3C73.4,26.3,72.1,25,70.4,25z"/>
	<rect x="100.6" y="7" class="st8 st0" width="6" height="6"/>	
	<rect x="109.6" y="7" class="st8 st0" width="6" height="6"/>
	<rect x="118.7" y="7" class="st8 st0" width="6" height="6"/>
	<rect x="118.7" y="16" class="st8 st0" width="6" height="6"/>
	<rect x="118.7" y="25" class="st8 st0" width="6" height="6"/>
	<rect x="109.6" y="25" class="st8 st0" width="6" height="6"/>	
	<rect x="100.6" y="25" class="st8 st0" width="6" height="6"/>
	<rect x="100.6" y="16" class="st8 st0" width="6" height="6"/>
	<rect x="109.6" y="16" class="st1" width="6" height="6"/>
	<path class="st0" d="M94.5,25h-7.8c-0.7,0-1.2-0.5-1.2-1.2v-9.6c0-0.7,0.5-1.2,1.2-1.2h7.8c1.7,0,3-1.3,3-3c0-1.7-1.4-3-3-3h-7.8
		c-0.7,0-1.2-0.5-1.2-1.2V4c0-1.7-1.4-3-3-3s-3,1.3-3,3v1.8c0,0.7-0.5,1.2-1.2,1.2h-1.8c-1.7,0-3,1.3-3,3c0,1.7,1.4,3,3,3h1.8
		c0.7,0,1.2,0.5,1.2,1.2V25c0,3.3,2.7,6,6,6h9.1c1.7,0,3-1.3,3-3C97.5,26.3,96.2,25,94.5,25z"/>
	<path class="st0" d="M178.1,25.9l-9.8-9.7c-0.4-0.5-0.4-1.2,0-1.6l7.3-7.3c1.2-1.2,1.3-3.1,0.1-4.2c-1.2-1.2-3.1-1.1-4.3,0
		l-8.5,8.5c-0.5,0.5-1.2,0.8-2,0.8c-1.7,0-3-1.3-3-3h0V4c0-1.7-1.4-3-3-3c-1.7,0-3,1.3-3,3v19.8c0,0.7-0.5,1.2-1.2,1.2H135
		c-0.7,0-1.2-0.5-1.2-1.2v-9.6c0-0.7,0.5-1.2,1.2-1.2h10.9c1.7,0,3-1.3,3-3s-1.4-3-3-3h-12.1c-3.3,0-6,2.7-6,6v12c0,3.3,2.7,6,6,6
		h18.1c3.3,0,6-2.7,6-6v-3.6h0c0-1.6,1.3-3,3-3c0.8,0,1.5,0.3,2.1,0.8l0.3,0.3l10.6,10.5c1.2,1.2,3.1,1.2,4.2,0v0
		C179.3,29,179.3,27.1,178.1,25.9z"/>
	<path class="st0" d="M4,1C2.4,1,1,2.3,1,4v24c0,1.7,1.4,3,3,3s3-1.3,3-3V4C7,2.3,5.7,1,4,1z"/>
</g>
</svg>
