<?xml version="1.0" encoding="utf-8"?>
<!-- Generator: Adobe Illustrator 21.1.0, SVG Export Plug-In . SVG Version: 6.00 Build 0)  -->
<svg version="1.1" id="图层_1" xmlns="http://www.w3.org/2000/svg" xmlns:xlink="http://www.w3.org/1999/xlink" x="0px" y="0px"
	 viewBox="0 0 1048 224" style="enable-background:new 0 0 1048 224;" xml:space="preserve">
<style type="text/css">

.st{-webkit-animation:offset 4s linear infinite forwards;-moz-animation:offset 4s linear infinite forwards;animation:offset 4s linear infinite forwards;stroke-linecap:round;stroke:#0088CC;stroke-width:2px;fill:#fff;}
.st0{stroke-dasharray:449.7381286621094;stroke-dashoffset:449.7381286621094;}
.st1{stroke-dasharray:2564.901123046875;stroke-dashoffset:2564.901123046875;}
.st2{stroke-dasharray:1550.9361572265625;stroke-dashoffset:1550.9361572265625;}

.st8{-webkit-animation:load-logo 1.2s linear infinite;-moz-animation:load-logo 1.2s linear infinite;animation:load-logo 1.2s linear infinite;fill:#DD504E;}
.st8:nth-child(1){-webkit-animation-delay:-0.1s;animation-delay:-0.1s;}
.st8:nth-child(2){-webkit-animation-delay:-0.2s;animation-delay:-0.2s;}
.st8:nth-child(3){-webkit-animation-delay:-0.3s;animation-delay:-0.3s;}
.st8:nth-child(4){-webkit-animation-delay:-0.4s;animation-delay:-0.4s;}
.st8:nth-child(5){-webkit-animation-delay:-0.5s;animation-delay:-0.5s;}
.st8:nth-child(6){-webkit-animation-delay:-0.6s;animation-delay:-0.6s;}
.st8:nth-child(7){-webkit-animation-delay:-0.7s;animation-delay:-0.7s;}
.st8:nth-child(8){-webkit-animation-delay:-0.8s;animation-delay:-0.8s;}
@keyframes offset{
    to{
    stroke-dashoffset:0px; fill:#0088CC; stroke-width:0;}
}
@-webkit-keyframes offset{
    to{stroke-dashoffset:0px; fill:#0088CC; stroke-width:0;}
}
@-webkit-keyframes load-logo{
    3%{fill-opacity:1;}
    75%{fill-opacity:0.4;}
}
@keyframes load-logo{
    3%{fill-opacity:1;}
    75%{fill-opacity:0.4;}
}
</style>
<g>
	<path class="st0 st" d="M25.1,9C14.3,9,5.6,17.7,5.6,28.4v163.9c0,10.7,8.7,19.4,19.4,19.4c10.7,0,19.4-8.7,19.4-19.4V28.4
		C44.5,17.7,35.8,9,25.1,9z"/>
	<path class="st1 st" d="M531.8,52.9H451c-8.2,0-14.8-6.6-14.8-14.8V24.7c0-8.2-6.6-14.8-14.8-14.8h-3.8c-8.2,0-14.8,6.6-14.8,14.8
		v13.5c0,8.2-6.6,14.8-14.8,14.8H359c-0.5,0-0.9,0-1.4,0.1h-83.2c-11.3,0-20.7,3.7-28.2,11.1c-7.5,7.3-11.3,16.5-11.3,27.6v16.3
		c0,9.6,3.8,18.3,11.3,26c7.3,7.5,17.6,11.3,30.9,11.3h53.8c9.4,0,14.1,3.9,14.1,11.6v14c0,7.3-4.7,11-14.1,11H218.3
		c-2.2-1.4-4-3.4-5.3-5.6V92.4c0-11.3-3.9-20.6-11.6-28.1c-7.9-7.5-18.8-11.3-32.5-11.3H103c-10.2,0-19.3,3.8-27.1,11.3
		c-7.5,7.3-11.3,17.1-11.3,29.5v101.1c0,9.2,7.5,16.7,16.7,16.7h0c9.2,0,16.7-7.5,16.7-16.7V98.5c0-5.3,1-9.1,3-11.4
		c2.5-2.9,8.2-4.4,16.9-4.4h46c6,0,10.1,1.3,12.5,3.8c2.1,2.2,3.1,6.2,3.1,12.1v96.4c0,9.2,7.5,16.7,16.7,16.7c0.1,0,0.1,0,0.2,0
		c0.1,0,0.1,0,0.2,0h138.1c14.1,0,24.9-3.6,32.5-10.8c7.4-7,11.1-16.3,11.1-27.8v-21.8c0-8.4-3.6-16.3-10.7-23.7
		c-7.5-7.8-17.8-11.8-30.9-11.8h-51.6c-6.4,0-11-1.3-13.8-3.9c-2.1-2-3.1-4.1-3.1-6.3V93.5c0-3,1.4-5.6,4.3-7.7
		c2.9-2.1,6.4-3.1,10.4-3.1h76.9c0.5,0,1,0,1.4-0.1H388c8.2,0,14.8,6.6,14.8,14.8V170c0,18.4,6.5,31.3,19.6,38.6
		c5.7,3.1,15.3,4.7,28.7,4.7h80.7c8.2,0,14.8-6.6,14.8-14.8v0c0-8.2-6.6-14.8-14.8-14.8h-71.9c-9.7,0-16-1-18.8-3.1
		c-3.2-2.2-4.9-6.5-4.9-13V97.4c0-8.2,6.6-14.8,14.8-14.8h80.8c8.2,0,14.8-6.6,14.8-14.8v0C546.6,59.6,540,52.9,531.8,52.9z"/>
	<rect x="579.4" y="174.5" class="st8" width="40.5" height="40.5"/>
	<rect x="579.4" y="113.8" class="st8" width="40.5" height="40.5"/>
	<rect x="579.4" y="53" class="st8" width="40.5" height="40.5"/>
	<rect x="640.2" y="174.5" class="st8" width="40.5" height="40.5"/>
	<rect x="700.9" y="113.8" class="st8" width="40.5" height="40.5"/>
	<rect x="700.9" y="174.5" class="st8" width="40.5" height="40.5"/>
	<rect x="700.9" y="53" class="st8" width="40.5" height="40.5"/>
	<rect x="640.2" y="53" class="st8" width="40.5" height="40.5"/>
	<path class="st2 st" d="M1041.8,205.1l-36.1-81.7l-3-6.2c-3.2-5.8-3.2-12.9-0.3-18.8l3.3-7l27.7-62.2c1.7-3.5-0.9-7.6-4.8-7.6h-20
		c-2.1,0-4.1,1.3-4.9,3.2l-17.4,40c-5.5,12.3-10.7,21.8-18.7,25.1c-4.6,1.8-11.4,1.7-19.1,1.6c-5.9-0.1-10.8-5-10.8-10.9V19.6
		c0-5.1-4.1-9.2-9.2-9.2h-15.1c-5.1,0-9.2,4.1-9.2,9.2v90.6v72.2h-79.5c-7.5,0-12.6-2-15.2-6c-1.3-1.9-1.9-8.8-1.9-20.9l-0.1-60.3
		c0-5,1-8.5,3.1-10.5c3-2.9,8.8-4.4,17.4-4.4h50.1c8.2,0,14.8-6.6,14.8-14.8v0c0-8.2-6.6-14.8-14.8-14.8h-65.2
		c-11,0-20.3,3.7-28.1,11.1c-7.2,7-10.8,15.5-10.8,25.4l0.1,85.4c0,11.9,3.6,21.4,10.8,28.4c7.4,7.3,17.2,11,29.3,11H923
		c8.2,0,14.8-6.6,14.8-14.8v0c0-0.7-0.1-1.4-0.2-2c0.1-0.5,0.1-1,0.1-1.5v-60c0-5.7,4.7-10.5,10.4-10.6c7.9-0.2,15-0.5,19.6,1.3
		c8.1,3.2,13.1,13.1,18.7,25.4l24.8,57.3c1.5,3.4,4.8,5.5,8.4,5.5h17.4C1040.9,212.7,1043.5,208.7,1041.8,205.1z"/>
</g>
</svg>
