<?xml version="1.0" encoding="utf-8"?>
<!-- Generator: Adobe Illustrator 23.0.0, SVG Export Plug-In . SVG Version: 6.00 Build 0)  -->
<svg version="1.1" id="图层_1" xmlns="http://www.w3.org/2000/svg" xmlns:xlink="http://www.w3.org/1999/xlink" x="0px" y="0px"
	 viewBox="0 0 260 62" style="enable-background:new 0 0 260 62;" xml:space="preserve">
<style type="text/css">
	.st0{fill:#77CEE7;}
</style>
<g>
	<path class="st0" d="M2.76,2.51v18.57c0,0.24-0.11,0.36-0.33,0.36H1.56c-0.2,0-0.3-0.12-0.3-0.36V2.51c0-0.24,0.1-0.36,0.3-0.36
		h0.87C2.65,2.15,2.76,2.27,2.76,2.51z"/>
	<path class="st0" d="M8.88,21.44H8.01c-0.2,0-0.3-0.12-0.3-0.36V6.5c0-0.24,0.1-0.36,0.3-0.36h0.87c0.22,0,0.33,0.12,0.33,0.36v1.2
		h0.12c0.56-1.04,1.6-1.56,3.12-1.56h1.98c1.28,0,2.29,0.38,3.03,1.14c0.74,0.76,1.11,1.8,1.11,3.12v10.68c0,0.24-0.1,0.36-0.3,0.36
		H17.4c-0.22,0-0.33-0.12-0.33-0.36V10.46c0-0.94-0.24-1.67-0.72-2.19s-1.18-0.78-2.1-0.78H12.3c-0.96,0-1.71,0.26-2.26,0.77
		c-0.55,0.51-0.83,1.24-0.83,2.18v10.65C9.21,21.32,9.1,21.44,8.88,21.44z"/>
	<path class="st0" d="M23.58,7.49h-1.83c-0.22,0-0.33-0.1-0.33-0.3V6.47c0-0.22,0.11-0.33,0.33-0.33h1.83
		c0.18,0,0.27-0.09,0.27-0.27V3.44c0-0.24,0.11-0.36,0.33-0.36h0.87c0.22,0,0.33,0.12,0.33,0.36v2.43c0,0.18,0.09,0.27,0.27,0.27
		h3.57c0.22,0,0.33,0.11,0.33,0.33v0.72c0,0.2-0.11,0.3-0.33,0.3h-3.57c-0.18,0-0.27,0.09-0.27,0.27v9.45
		c0,0.92,0.26,1.63,0.78,2.13c0.52,0.5,1.25,0.75,2.19,0.75h1.17c0.22,0,0.33,0.11,0.33,0.33v0.69c0,0.22-0.11,0.33-0.33,0.33h-1.29
		c-1.32,0-2.38-0.37-3.18-1.11c-0.8-0.74-1.2-1.76-1.2-3.06V7.76C23.85,7.58,23.76,7.49,23.58,7.49z"/>
	<path class="st0" d="M43.5,21.44h-6.27c-1.3,0-2.32-0.38-3.07-1.14c-0.75-0.76-1.13-1.8-1.13-3.12V10.4c0-1.32,0.38-2.36,1.13-3.12
		c0.75-0.76,1.77-1.14,3.07-1.14h2.58c1.3,0,2.33,0.38,3.09,1.14c0.76,0.76,1.14,1.8,1.14,3.12v3.81c0,0.24-0.12,0.36-0.36,0.36
		H34.8c-0.18,0-0.27,0.09-0.27,0.27v2.31c0,0.94,0.24,1.67,0.72,2.17c0.48,0.51,1.18,0.77,2.1,0.77h6.15c0.22,0,0.33,0.11,0.33,0.33
		v0.69C43.83,21.33,43.72,21.44,43.5,21.44z M34.8,13.37h7.47c0.18,0,0.27-0.09,0.27-0.27v-2.67c0-0.94-0.24-1.67-0.72-2.18
		c-0.48-0.51-1.18-0.77-2.1-0.77h-2.37c-0.92,0-1.62,0.26-2.1,0.77c-0.48,0.51-0.72,1.24-0.72,2.18v2.67
		C34.53,13.28,34.62,13.37,34.8,13.37z"/>
	<path class="st0" d="M49.41,21.44h-0.87c-0.2,0-0.3-0.12-0.3-0.36V0.71c0-0.24,0.1-0.36,0.3-0.36h0.87c0.22,0,0.33,0.12,0.33,0.36
		v20.37C49.74,21.32,49.63,21.44,49.41,21.44z"/>
	<path class="st0" d="M55.71,21.44h-0.87c-0.2,0-0.3-0.12-0.3-0.36V0.71c0-0.24,0.1-0.36,0.3-0.36h0.87c0.22,0,0.33,0.12,0.33,0.36
		v20.37C56.04,21.32,55.93,21.44,55.71,21.44z"/>
	<path class="st0" d="M60.84,3.62V0.74c0-0.22,0.1-0.33,0.3-0.33h0.9c0.2,0,0.3,0.11,0.3,0.33v2.88c0,0.24-0.1,0.36-0.3,0.36h-0.9
		C60.94,3.98,60.84,3.86,60.84,3.62z M60.84,21.08V6.5c0-0.24,0.1-0.36,0.3-0.36h0.87c0.22,0,0.33,0.12,0.33,0.36v14.58
		c0,0.24-0.1,0.36-0.3,0.36h-0.9C60.94,21.44,60.84,21.32,60.84,21.08z"/>
	<path class="st0" d="M72.93,20.57h-1.95c-1.28,0-2.29-0.38-3.04-1.14s-1.13-1.79-1.13-3.09V10.4c0-1.32,0.38-2.36,1.13-3.12
		c0.75-0.76,1.77-1.14,3.07-1.14h6.36c0.22,0,0.33,0.12,0.33,0.36v14.88c0,1.32-0.38,2.36-1.14,3.12c-0.76,0.76-1.79,1.14-3.09,1.14
		H68c-0.22,0-0.33-0.11-0.33-0.33v-0.72c0-0.2,0.11-0.3,0.33-0.3h5.34c0.92,0,1.62-0.25,2.1-0.77c0.48-0.51,0.72-1.25,0.72-2.21
		v-2.31h-0.12C75.54,20.05,74.5,20.57,72.93,20.57z M76.17,16.28V7.76c0-0.18-0.09-0.27-0.27-0.27h-4.74
		c-0.92,0-1.63,0.26-2.12,0.77c-0.49,0.51-0.73,1.25-0.73,2.21v5.82c0,0.94,0.24,1.67,0.73,2.18c0.49,0.51,1.2,0.76,2.12,0.76h1.92
		c0.96,0,1.71-0.25,2.27-0.76C75.89,17.95,76.17,17.22,76.17,16.28z"/>
	<path class="st0" d="M92.33,21.44h-6.27c-1.3,0-2.33-0.38-3.08-1.14c-0.75-0.76-1.13-1.8-1.13-3.12V10.4
		c0-1.32,0.38-2.36,1.13-3.12c0.75-0.76,1.77-1.14,3.08-1.14h2.58c1.3,0,2.33,0.38,3.09,1.14c0.76,0.76,1.14,1.8,1.14,3.12v3.81
		c0,0.24-0.12,0.36-0.36,0.36h-8.88c-0.18,0-0.27,0.09-0.27,0.27v2.31c0,0.94,0.24,1.67,0.72,2.17c0.48,0.51,1.18,0.77,2.1,0.77
		h6.15c0.22,0,0.33,0.11,0.33,0.33v0.69C92.67,21.33,92.55,21.44,92.33,21.44z M83.63,13.37h7.47c0.18,0,0.27-0.09,0.27-0.27v-2.67
		c0-0.94-0.24-1.67-0.72-2.18c-0.48-0.51-1.18-0.77-2.1-0.77h-2.37c-0.92,0-1.62,0.26-2.1,0.77c-0.48,0.51-0.72,1.24-0.72,2.18v2.67
		C83.37,13.28,83.46,13.37,83.63,13.37z"/>
	<path class="st0" d="M98.09,21.44h-0.87c-0.2,0-0.3-0.12-0.3-0.36V6.5c0-0.24,0.1-0.36,0.3-0.36h0.87c0.22,0,0.33,0.12,0.33,0.36
		v1.2h0.12c0.56-1.04,1.6-1.56,3.12-1.56h1.98c1.28,0,2.29,0.38,3.03,1.14c0.74,0.76,1.11,1.8,1.11,3.12v10.68
		c0,0.24-0.1,0.36-0.3,0.36h-0.87c-0.22,0-0.33-0.12-0.33-0.36V10.46c0-0.94-0.24-1.67-0.72-2.19c-0.48-0.52-1.18-0.78-2.1-0.78
		h-1.95c-0.96,0-1.71,0.26-2.26,0.77c-0.55,0.51-0.83,1.24-0.83,2.18v10.65C98.42,21.32,98.31,21.44,98.09,21.44z"/>
	<path class="st0" d="M112.79,7.49h-1.83c-0.22,0-0.33-0.1-0.33-0.3V6.47c0-0.22,0.11-0.33,0.33-0.33h1.83
		c0.18,0,0.27-0.09,0.27-0.27V3.44c0-0.24,0.11-0.36,0.33-0.36h0.87c0.22,0,0.33,0.12,0.33,0.36v2.43c0,0.18,0.09,0.27,0.27,0.27
		h3.57c0.22,0,0.33,0.11,0.33,0.33v0.72c0,0.2-0.11,0.3-0.33,0.3h-3.57c-0.18,0-0.27,0.09-0.27,0.27v9.45
		c0,0.92,0.26,1.63,0.78,2.13c0.52,0.5,1.25,0.75,2.19,0.75h1.17c0.22,0,0.33,0.11,0.33,0.33v0.69c0,0.22-0.11,0.33-0.33,0.33h-1.29
		c-1.32,0-2.38-0.37-3.18-1.11c-0.8-0.74-1.2-1.76-1.2-3.06V7.76C113.06,7.58,112.97,7.49,112.79,7.49z"/>
	<path class="st0" d="M134.72,21.44h-1.2c-0.2,0-0.33-0.12-0.39-0.36l-4.2-14.58c-0.06-0.24,0.02-0.36,0.24-0.36h0.96
		c0.22,0,0.35,0.12,0.39,0.36l3.54,13.05h0.15l3.48-13.05c0.04-0.24,0.18-0.36,0.42-0.36h0.87c0.24,0,0.38,0.12,0.42,0.36
		l3.42,13.05h0.15l3.57-13.05c0.06-0.24,0.19-0.36,0.39-0.36h0.96c0.24,0,0.32,0.12,0.24,0.36l-4.17,14.58
		c-0.06,0.24-0.2,0.36-0.42,0.36h-1.2c-0.22,0-0.36-0.12-0.42-0.36l-3.33-12.66h-0.15l-3.3,12.66
		C135.08,21.32,134.94,21.44,134.72,21.44z"/>
	<path class="st0" d="M156.86,21.44h-1.92c-1.3,0-2.33-0.38-3.08-1.14c-0.75-0.76-1.13-1.8-1.13-3.12V10.4
		c0-1.32,0.38-2.36,1.13-3.12c0.75-0.76,1.77-1.14,3.08-1.14h6.36c0.2,0,0.3,0.12,0.3,0.36v14.58c0,0.24-0.1,0.36-0.3,0.36h-0.87
		c-0.22,0-0.33-0.12-0.33-0.36v-1.2h-0.12C159.46,20.92,158.42,21.44,156.86,21.44z M160.1,17.15V7.76c0-0.18-0.1-0.27-0.3-0.27
		h-4.74c-0.92,0-1.62,0.26-2.1,0.78c-0.48,0.52-0.72,1.25-0.72,2.19v6.66c0,0.94,0.24,1.67,0.72,2.19c0.48,0.52,1.18,0.78,2.1,0.78
		h1.95c0.96,0,1.71-0.25,2.27-0.77C159.83,18.82,160.1,18.09,160.1,17.15z"/>
	<path class="st0" d="M167.27,21.44h-0.87c-0.2,0-0.3-0.12-0.3-0.36V6.5c0-0.24,0.1-0.36,0.3-0.36h0.87c0.22,0,0.33,0.12,0.33,0.36
		v1.26h0.12c0.22-0.42,0.61-0.79,1.17-1.13c0.56-0.33,1.25-0.49,2.07-0.49h1.17c0.22,0,0.33,0.11,0.33,0.33v0.72
		c0,0.22-0.11,0.32-0.33,0.3h-1.41c-0.98,0-1.75,0.3-2.29,0.9c-0.55,0.6-0.83,1.41-0.83,2.43v10.26
		C167.6,21.32,167.49,21.44,167.27,21.44z"/>
	<path class="st0" d="M185.66,21.44h-6.27c-1.3,0-2.33-0.38-3.08-1.14c-0.75-0.76-1.13-1.8-1.13-3.12V10.4
		c0-1.32,0.38-2.36,1.13-3.12c0.75-0.76,1.77-1.14,3.08-1.14h2.58c1.3,0,2.33,0.38,3.09,1.14c0.76,0.76,1.14,1.8,1.14,3.12v3.81
		c0,0.24-0.12,0.36-0.36,0.36h-8.88c-0.18,0-0.27,0.09-0.27,0.27v2.31c0,0.94,0.24,1.67,0.72,2.17c0.48,0.51,1.18,0.77,2.1,0.77
		h6.15c0.22,0,0.33,0.11,0.33,0.33v0.69C185.99,21.33,185.88,21.44,185.66,21.44z M176.96,13.37h7.47c0.18,0,0.27-0.09,0.27-0.27
		v-2.67c0-0.94-0.24-1.67-0.72-2.18c-0.48-0.51-1.18-0.77-2.1-0.77h-2.37c-0.92,0-1.62,0.26-2.1,0.77
		c-0.48,0.51-0.72,1.24-0.72,2.18v2.67C176.69,13.28,176.78,13.37,176.96,13.37z"/>
	<path class="st0" d="M191.42,21.44h-0.87c-0.2,0-0.3-0.12-0.3-0.36V0.71c0-0.24,0.1-0.36,0.3-0.36h0.87c0.22,0,0.33,0.12,0.33,0.36
		V7.7h0.12c0.56-1.04,1.6-1.56,3.12-1.56h1.98c1.28,0,2.29,0.38,3.03,1.14c0.74,0.76,1.11,1.8,1.11,3.12v10.68
		c0,0.24-0.1,0.36-0.3,0.36h-0.87c-0.22,0-0.33-0.12-0.33-0.36V10.46c0-0.94-0.24-1.67-0.72-2.19c-0.48-0.52-1.18-0.78-2.1-0.78
		h-1.95c-0.96,0-1.71,0.26-2.26,0.77c-0.55,0.51-0.83,1.24-0.83,2.18v10.65C191.75,21.32,191.64,21.44,191.42,21.44z"/>
	<path class="st0" d="M211.94,21.44h-2.58c-1.3,0-2.33-0.38-3.08-1.14c-0.75-0.76-1.13-1.8-1.13-3.12V10.4
		c0-1.32,0.38-2.36,1.13-3.12c0.75-0.76,1.77-1.14,3.08-1.14h2.58c1.3,0,2.33,0.38,3.09,1.14c0.76,0.76,1.14,1.8,1.14,3.12v6.78
		c0,1.32-0.38,2.36-1.14,3.12C214.27,21.06,213.24,21.44,211.94,21.44z M209.48,20.09h2.34c0.92,0,1.62-0.25,2.11-0.77
		c0.49-0.51,0.74-1.23,0.74-2.17v-6.72c0-0.94-0.25-1.67-0.74-2.18c-0.49-0.51-1.2-0.77-2.11-0.77h-2.34c-0.92,0-1.62,0.26-2.1,0.77
		c-0.48,0.51-0.72,1.24-0.72,2.18v6.72c0,0.94,0.24,1.67,0.72,2.17C207.86,19.84,208.56,20.09,209.48,20.09z"/>
	<path class="st0" d="M226.31,21.44h-1.98c-1.28,0-2.29-0.38-3.03-1.14c-0.74-0.76-1.11-1.8-1.11-3.12V6.5c0-0.24,0.1-0.36,0.3-0.36
		h0.87c0.22,0,0.33,0.12,0.33,0.36v10.62c0,0.94,0.24,1.67,0.72,2.19c0.48,0.52,1.18,0.78,2.1,0.78h1.95c0.96,0,1.71-0.25,2.26-0.77
		c0.55-0.51,0.83-1.23,0.83-2.17V6.5c0-0.24,0.11-0.36,0.33-0.36h0.87c0.2,0,0.3,0.12,0.3,0.36v14.58c0,0.24-0.1,0.36-0.3,0.36
		h-0.87c-0.22,0-0.33-0.12-0.33-0.36v-1.2h-0.12C228.91,20.92,227.87,21.44,226.31,21.44z"/>
	<path class="st0" d="M240.5,21.44h-5.22c-0.22,0-0.33-0.11-0.33-0.33v-0.69c0-0.2,0.11-0.3,0.33-0.3h5.07c1.8,0,2.7-0.7,2.7-2.1
		V17.3c0-1.3-0.56-2.15-1.68-2.55l-3.75-1.44c-1.02-0.4-1.75-0.87-2.18-1.41c-0.43-0.54-0.64-1.29-0.64-2.25
		c0-2.34,1.29-3.51,3.87-3.51h4.86c0.22,0,0.33,0.11,0.33,0.33v0.69c0,0.2-0.11,0.3-0.33,0.3h-4.71c-0.82,0-1.43,0.18-1.84,0.54
		s-0.62,0.78-0.62,1.26v0.69c0,0.56,0.16,1,0.47,1.32c0.31,0.32,0.78,0.59,1.42,0.81l3.75,1.5c1.04,0.34,1.73,0.85,2.08,1.51
		c0.35,0.67,0.52,1.6,0.52,2.81s-0.33,2.09-1,2.67C242.94,21.16,241.9,21.44,240.5,21.44z"/>
	<path class="st0" d="M258.65,21.44h-6.27c-1.3,0-2.33-0.38-3.08-1.14c-0.75-0.76-1.13-1.8-1.13-3.12V10.4
		c0-1.32,0.38-2.36,1.13-3.12c0.75-0.76,1.77-1.14,3.08-1.14h2.58c1.3,0,2.33,0.38,3.09,1.14c0.76,0.76,1.14,1.8,1.14,3.12v3.81
		c0,0.24-0.12,0.36-0.36,0.36h-8.88c-0.18,0-0.27,0.09-0.27,0.27v2.31c0,0.94,0.24,1.67,0.72,2.17c0.48,0.51,1.18,0.77,2.1,0.77
		h6.15c0.22,0,0.33,0.11,0.33,0.33v0.69C258.98,21.33,258.87,21.44,258.65,21.44z M249.95,13.37h7.47c0.18,0,0.27-0.09,0.27-0.27
		v-2.67c0-0.94-0.24-1.67-0.72-2.18c-0.48-0.51-1.18-0.77-2.1-0.77h-2.37c-0.92,0-1.62,0.26-2.1,0.77
		c-0.48,0.51-0.72,1.24-0.72,2.18v2.67C249.68,13.28,249.77,13.37,249.95,13.37z"/>
	<path class="st0" d="M1.98,57.45H1.11c-0.2,0-0.3-0.12-0.3-0.36V42.5c0-0.24,0.1-0.36,0.3-0.36h0.87c0.22,0,0.33,0.12,0.33,0.36
		v1.2h0.12c0.58-1.04,1.64-1.56,3.18-1.56h1.23c1.76,0,2.98,0.7,3.66,2.1c0.3-0.7,0.81-1.22,1.53-1.58
		c0.72-0.35,1.46-0.52,2.22-0.52h1.11c1.3,0,2.32,0.38,3.06,1.14c0.74,0.76,1.11,1.8,1.11,3.12v10.68c0,0.24-0.11,0.36-0.33,0.36
		h-0.87c-0.22,0-0.33-0.12-0.33-0.36V46.46c0-0.96-0.24-1.69-0.72-2.2c-0.48-0.51-1.18-0.77-2.1-0.77h-1.11
		c-0.96,0-1.72,0.28-2.28,0.83c-0.56,0.55-0.84,1.29-0.84,2.24v10.53c0,0.24-0.11,0.36-0.33,0.36H9.75c-0.22,0-0.33-0.12-0.33-0.36
		V46.46c0-0.96-0.24-1.69-0.72-2.2c-0.48-0.51-1.18-0.77-2.1-0.77H5.4c-0.96,0-1.71,0.25-2.26,0.77c-0.55,0.51-0.83,1.23-0.83,2.17
		v10.65C2.31,57.32,2.2,57.45,1.98,57.45z"/>
	<path class="st0" d="M29.7,57.45h-1.92c-1.3,0-2.32-0.38-3.07-1.14s-1.13-1.8-1.13-3.12v-6.78c0-1.32,0.38-2.36,1.13-3.12
		c0.75-0.76,1.77-1.14,3.07-1.14h6.36c0.2,0,0.3,0.12,0.3,0.36v14.58c0,0.24-0.1,0.36-0.3,0.36h-0.87c-0.22,0-0.33-0.12-0.33-0.36
		v-1.2h-0.12C32.3,56.93,31.26,57.45,29.7,57.45z M32.94,53.16v-9.39c0-0.18-0.1-0.27-0.3-0.27H27.9c-0.92,0-1.62,0.26-2.1,0.78
		c-0.48,0.52-0.72,1.25-0.72,2.19v6.66c0,0.94,0.24,1.67,0.72,2.19c0.48,0.52,1.18,0.78,2.1,0.78h1.95c0.96,0,1.71-0.26,2.26-0.77
		C32.66,54.82,32.94,54.1,32.94,53.16z"/>
	<path class="st0" d="M40.11,57.45h-0.87c-0.2,0-0.3-0.12-0.3-0.36V42.5c0-0.24,0.1-0.36,0.3-0.36h0.87c0.22,0,0.33,0.12,0.33,0.36
		v1.2h0.12c0.56-1.04,1.6-1.56,3.12-1.56h1.98c1.28,0,2.29,0.38,3.03,1.14c0.74,0.76,1.11,1.8,1.11,3.12v10.68
		c0,0.24-0.1,0.36-0.3,0.36h-0.87c-0.22,0-0.33-0.12-0.33-0.36V46.46c0-0.94-0.24-1.67-0.72-2.19c-0.48-0.52-1.18-0.78-2.1-0.78
		h-1.95c-0.96,0-1.71,0.25-2.26,0.77c-0.55,0.51-0.83,1.23-0.83,2.17v10.65C40.44,57.32,40.33,57.45,40.11,57.45z"/>
	<path class="st0" d="M59.97,57.45h-1.92c-1.3,0-2.32-0.38-3.07-1.14s-1.13-1.8-1.13-3.12v-6.78c0-1.32,0.38-2.36,1.13-3.12
		c0.75-0.76,1.77-1.14,3.07-1.14h6.36c0.2,0,0.3,0.12,0.3,0.36v14.58c0,0.24-0.1,0.36-0.3,0.36h-0.87c-0.22,0-0.33-0.12-0.33-0.36
		v-1.2h-0.12C62.57,56.93,61.53,57.45,59.97,57.45z M63.21,53.16v-9.39c0-0.18-0.1-0.27-0.3-0.27h-4.74c-0.92,0-1.62,0.26-2.1,0.78
		c-0.48,0.52-0.72,1.25-0.72,2.19v6.66c0,0.94,0.24,1.67,0.72,2.19c0.48,0.52,1.18,0.78,2.1,0.78h1.95c0.96,0,1.71-0.26,2.26-0.77
		C62.93,54.82,63.21,54.1,63.21,53.16z"/>
	<path class="st0" d="M75.15,56.57H73.2c-1.28,0-2.29-0.38-3.04-1.14s-1.13-1.79-1.13-3.09v-5.94c0-1.32,0.38-2.36,1.13-3.12
		c0.75-0.76,1.77-1.14,3.07-1.14h6.36c0.22,0,0.33,0.12,0.33,0.36v14.88c0,1.32-0.38,2.36-1.14,3.12c-0.76,0.76-1.79,1.14-3.09,1.14
		h-5.46c-0.22,0-0.33-0.11-0.33-0.33V60.6c0-0.2,0.11-0.3,0.33-0.3h5.34c0.92,0,1.62-0.25,2.1-0.76c0.48-0.51,0.72-1.25,0.72-2.21
		v-2.31h-0.12C77.77,56.06,76.73,56.57,75.15,56.57z M78.39,52.28v-8.52c0-0.18-0.09-0.27-0.27-0.27h-4.74
		c-0.92,0-1.63,0.25-2.12,0.77c-0.49,0.51-0.73,1.24-0.73,2.2v5.82c0,0.94,0.24,1.67,0.73,2.17c0.49,0.51,1.2,0.77,2.12,0.77h1.92
		c0.96,0,1.71-0.25,2.27-0.77C78.11,53.95,78.39,53.23,78.39,52.28z"/>
	<path class="st0" d="M94.56,57.45h-6.27c-1.3,0-2.33-0.38-3.08-1.14s-1.13-1.8-1.13-3.12v-6.78c0-1.32,0.38-2.36,1.13-3.12
		c0.75-0.76,1.77-1.14,3.08-1.14h2.58c1.3,0,2.33,0.38,3.09,1.14c0.76,0.76,1.14,1.8,1.14,3.12v3.81c0,0.24-0.12,0.36-0.36,0.36
		h-8.88c-0.18,0-0.27,0.09-0.27,0.27v2.31c0,0.94,0.24,1.67,0.72,2.17c0.48,0.51,1.18,0.77,2.1,0.77h6.15
		c0.22,0,0.33,0.11,0.33,0.33v0.69C94.89,57.34,94.78,57.45,94.56,57.45z M85.86,49.37h7.47c0.18,0,0.27-0.09,0.27-0.27v-2.67
		c0-0.94-0.24-1.67-0.72-2.17c-0.48-0.51-1.18-0.77-2.1-0.77h-2.37c-0.92,0-1.62,0.25-2.1,0.77c-0.48,0.51-0.72,1.23-0.72,2.17v2.67
		C85.59,49.28,85.68,49.37,85.86,49.37z"/>
	<path class="st0" d="M100.32,57.45h-0.87c-0.2,0-0.3-0.12-0.3-0.36V42.5c0-0.24,0.1-0.36,0.3-0.36h0.87c0.22,0,0.33,0.12,0.33,0.36
		v1.2h0.12c0.58-1.04,1.64-1.56,3.18-1.56h1.23c1.76,0,2.98,0.7,3.66,2.1c0.3-0.7,0.81-1.22,1.53-1.58
		c0.72-0.35,1.46-0.52,2.22-0.52h1.11c1.3,0,2.32,0.38,3.06,1.14c0.74,0.76,1.11,1.8,1.11,3.12v10.68c0,0.24-0.11,0.36-0.33,0.36
		h-0.87c-0.22,0-0.33-0.12-0.33-0.36V46.46c0-0.96-0.24-1.69-0.72-2.2c-0.48-0.51-1.18-0.77-2.1-0.77h-1.11
		c-0.96,0-1.72,0.28-2.28,0.83c-0.56,0.55-0.84,1.29-0.84,2.24v10.53c0,0.24-0.11,0.36-0.33,0.36h-0.87c-0.22,0-0.33-0.12-0.33-0.36
		V46.46c0-0.96-0.24-1.69-0.72-2.2c-0.48-0.51-1.18-0.77-2.1-0.77h-1.2c-0.96,0-1.71,0.25-2.26,0.77c-0.55,0.51-0.83,1.23-0.83,2.17
		v10.65C100.65,57.32,100.54,57.45,100.32,57.45z"/>
	<path class="st0" d="M132.39,57.45h-6.27c-1.3,0-2.33-0.38-3.08-1.14s-1.13-1.8-1.13-3.12v-6.78c0-1.32,0.38-2.36,1.13-3.12
		c0.75-0.76,1.77-1.14,3.08-1.14h2.58c1.3,0,2.33,0.38,3.09,1.14c0.76,0.76,1.14,1.8,1.14,3.12v3.81c0,0.24-0.12,0.36-0.36,0.36
		h-8.88c-0.18,0-0.27,0.09-0.27,0.27v2.31c0,0.94,0.24,1.67,0.72,2.17c0.48,0.51,1.18,0.77,2.1,0.77h6.15
		c0.22,0,0.33,0.11,0.33,0.33v0.69C132.72,57.34,132.61,57.45,132.39,57.45z M123.69,49.37h7.47c0.18,0,0.27-0.09,0.27-0.27v-2.67
		c0-0.94-0.24-1.67-0.72-2.17c-0.48-0.51-1.18-0.77-2.1-0.77h-2.37c-0.92,0-1.62,0.25-2.1,0.77c-0.48,0.51-0.72,1.23-0.72,2.17v2.67
		C123.42,49.28,123.51,49.37,123.69,49.37z"/>
	<path class="st0" d="M138.15,57.45h-0.87c-0.2,0-0.3-0.12-0.3-0.36V42.5c0-0.24,0.1-0.36,0.3-0.36h0.87c0.22,0,0.33,0.12,0.33,0.36
		v1.2h0.12c0.56-1.04,1.6-1.56,3.12-1.56h1.98c1.28,0,2.29,0.38,3.03,1.14c0.74,0.76,1.11,1.8,1.11,3.12v10.68
		c0,0.24-0.1,0.36-0.3,0.36h-0.87c-0.22,0-0.33-0.12-0.33-0.36V46.46c0-0.94-0.24-1.67-0.72-2.19c-0.48-0.52-1.18-0.78-2.1-0.78
		h-1.95c-0.96,0-1.71,0.25-2.26,0.77c-0.55,0.51-0.83,1.23-0.83,2.17v10.65C138.48,57.32,138.37,57.45,138.15,57.45z"/>
	<path class="st0" d="M152.85,43.49h-1.83c-0.22,0-0.33-0.1-0.33-0.3v-0.72c0-0.22,0.11-0.33,0.33-0.33h1.83
		c0.18,0,0.27-0.09,0.27-0.27v-2.43c0-0.24,0.11-0.36,0.33-0.36h0.87c0.22,0,0.33,0.12,0.33,0.36v2.43c0,0.18,0.09,0.27,0.27,0.27
		h3.57c0.22,0,0.33,0.11,0.33,0.33v0.72c0,0.2-0.11,0.3-0.33,0.3h-3.57c-0.18,0-0.27,0.09-0.27,0.27v9.45
		c0,0.92,0.26,1.63,0.78,2.13c0.52,0.5,1.25,0.75,2.19,0.75h1.17c0.22,0,0.33,0.11,0.33,0.33v0.69c0,0.22-0.11,0.33-0.33,0.33h-1.29
		c-1.32,0-2.38-0.37-3.18-1.11c-0.8-0.74-1.2-1.76-1.2-3.06v-9.51C153.12,43.58,153.03,43.49,152.85,43.49z"/>
</g>
</svg>
