<?xml version="1.0" encoding="utf-8"?>
<!-- Generator: Adobe Illustrator 23.0.0, SVG Export Plug-In . SVG Version: 6.00 Build 0)  -->
<svg version="1.1" id="图层_1" xmlns="http://www.w3.org/2000/svg" xmlns:xlink="http://www.w3.org/1999/xlink" x="0px" y="0px"
	 viewBox="0 0 156 28" style="enable-background:new 0 0 156 28;" xml:space="preserve">
<style type="text/css">
	.st0{fill:#FFFFFF;}
	.st1{fill:#E04C67;}
</style>
<g>
	<path class="st0" d="M60.81,11.4H43.36c-0.58,0-1.06-0.47-1.06-1.04V7.24c0-0.57,0.47-1.04,1.06-1.04h16.92
		c1.46,0,2.64-1.16,2.64-2.6c0-1.44-1.18-2.6-2.64-2.6H42.31c-2.92,0-5.29,2.33-5.29,5.2v0v5.2c0,2.87,2.37,5.2,5.29,5.2h18.51
		c1.46,0,2.64-1.16,2.64-2.6C63.46,12.56,62.27,11.4,60.81,11.4z"/>
	<path class="st0" d="M60.81,21.8H35.43c-0.58,0-1.06-0.47-1.06-1.04V11.4v0c0-2.87-2.37-5.2-5.29-5.2H13.22
		c-2.92,0-5.29,2.33-5.29,5.2v0v13c0,1.44,1.18,2.6,2.64,2.6c1.46,0,2.64-1.16,2.64-2.6V12.44c0-0.57,0.47-1.04,1.06-1.04h13.75
		c0.58,0,1.06,0.47,1.06,1.04V24.4c0,1.44,1.18,2.6,2.64,2.6h29.08c1.46,0,2.64-1.16,2.64-2.6C63.46,22.96,62.27,21.8,60.81,21.8z"
		/>
	<rect x="87.25" y="21.8" class="st0" width="5.29" height="5.2"/>
	<rect x="95.19" y="21.8" class="st0" width="5.29" height="5.2"/>
	<rect x="103.12" y="21.8" class="st0" width="5.29" height="5.2"/>
	<rect x="87.25" y="14" class="st0" width="5.29" height="5.2"/>
	<rect x="95.19" y="14" class="st1" width="5.29" height="5.2"/>
	<rect x="103.12" y="14" class="st0" width="5.29" height="5.2"/>
	<rect x="87.25" y="6.2" class="st0" width="5.29" height="5.2"/>
	<rect x="95.19" y="6.2" class="st0" width="5.29" height="5.2"/>
	<rect x="103.12" y="6.2" class="st0" width="5.29" height="5.2"/>
	<path class="st0" d="M81.97,21.8h-6.87c-0.58,0-1.06-0.47-1.06-1.04v-8.32c0-0.57,0.47-1.04,1.06-1.04h6.87
		c1.46,0,2.64-1.16,2.64-2.6c0-1.44-1.18-2.6-2.64-2.6h-6.87c-0.58,0-1.06-0.47-1.06-1.04V3.6c0-1.44-1.18-2.6-2.64-2.6h0
		c-1.46,0-2.64,1.16-2.64,2.6v1.56c0,0.57-0.47,1.04-1.06,1.04H66.1c-1.46,0-2.64,1.16-2.64,2.6c0,1.44,1.18,2.6,2.64,2.6h1.59
		c0.58,0,1.06,0.47,1.06,1.04v9.36c0,2.87,2.37,5.2,5.29,5.2h0h7.93c1.46,0,2.64-1.16,2.64-2.6C84.61,22.96,83.43,21.8,81.97,21.8z"
		/>
	<path class="st0" d="M155.22,22.59l-8.57-8.42c-0.36-0.4-0.36-1,0.01-1.39l6.41-6.31c1.03-1.02,1.11-2.66,0.08-3.68v0
		c-1.03-1.02-2.75-0.98-3.78,0.04l-7.48,7.37c-0.47,0.41-1.08,0.67-1.76,0.67c-1.45,0-2.63-1.15-2.63-2.58h0V3.6
		c0-1.44-1.18-2.6-2.64-2.6h0c-1.46,0-2.64,1.16-2.64,2.6v17.16c0,0.57-0.47,1.04-1.06,1.04H117.4c-0.58,0-1.06-0.47-1.06-1.04
		v-8.32c0-0.57,0.47-1.04,1.06-1.04h9.52c1.46,0,2.64-1.16,2.64-2.6s-1.18-2.6-2.64-2.6h-10.58c-2.92,0-5.29,2.33-5.29,5.2v10.4
		c0,2.87,2.37,5.2,5.29,5.2h15.86c2.92,0,5.29-2.33,5.29-5.2v-3.12h0c0.01-1.43,1.18-2.58,2.63-2.58c0.71,0,1.36,0.28,1.83,0.73
		l0.3,0.29l9.26,9.11c1.03,1.02,2.69,1.03,3.72,0.02C156.27,25.23,156.25,23.6,155.22,22.59z"/>
	<path class="st0" d="M2.64,1L2.64,1C1.18,1,0,2.16,0,3.6v20.8C0,25.84,1.18,27,2.64,27h0c1.46,0,2.64-1.16,2.64-2.6V3.6
		C5.29,2.16,4.1,1,2.64,1z"/>
</g>
</svg>
