<?xml version="1.0" encoding="utf-8"?>
<!-- Generator: Adobe Illustrator 23.0.0, SVG Export Plug-In . SVG Version: 6.00 Build 0)  -->
<svg version="1.1" id="图层_1" xmlns="http://www.w3.org/2000/svg" xmlns:xlink="http://www.w3.org/1999/xlink" x="0px" y="0px"
	 viewBox="0 0 394 36" style="enable-background:new 0 0 394 36;" xml:space="preserve">
<style type="text/css">
	.st0{fill:#E3F5FA;}
</style>
<g>
	<path class="st0" d="M14.1,19.13c-1.01-0.9-3.02-2.38-4.64-3.49c-1.3,1.84-3.38,3.67-6.62,5.18c-0.58-0.86-1.76-2.2-2.7-2.88
		c3.67-1.44,5.51-3.2,6.41-5H0.57V9.6h2.41C2.12,9.06,0.96,8.41,0.24,8.05C2.08,6.32,3.48,3.69,4.2,1.03l3.78,0.79
		C7.77,2.5,7.55,3.22,7.26,3.94h8.93v3.31h-4.68v1.62c0,0.25,0,0.47-0.04,0.72h5.54v3.35h-5.94c1.51,0.79,5.11,2.84,6.05,3.46
		L14.1,19.13z M7.41,9.6C7.44,9.31,7.44,9.06,7.44,8.8V7.26h-1.8C5.14,8.12,4.56,8.91,3.99,9.6H7.41z M5.36,19.67h23.47v15.15h-4.39
		v-1.15H9.57v1.19H5.36V19.67z M9.57,23.02v2.02h14.87v-2.02H9.57z M24.43,30.26v-2.12H9.57v2.12H24.43z M31.92,3.87v13.64H18.24
		V3.87H31.92z M27.67,7.65H22.2v6.08h5.47V7.65z"/>
	<path class="st0" d="M49.56,3.44c1.66,2.45,3.49,5.65,4.07,7.92l-3.89,1.55c-0.11-0.54-0.32-1.15-0.58-1.8
		c-8.67,0.72-10.08,0.97-11.01,1.33c-0.22-0.83-0.94-2.84-1.44-4c0.58-0.14,1.15-0.61,1.76-1.4c0.54-0.72,2.23-3.24,3.24-5.9
		l4.54,1.19c-1.01,2.05-2.45,4.18-3.82,5.9l5.25-0.32c-0.54-1.08-1.19-2.16-1.76-3.13L49.56,3.44z M51.83,30.51
		c0,1.87-0.36,2.92-1.58,3.53c-1.19,0.68-2.88,0.72-5,0.72c-0.22-1.12-0.86-2.77-1.4-3.78c1.3,0.07,2.7,0.04,3.17,0
		c0.43,0,0.58-0.11,0.58-0.54v-2.41h-5.36v6.8h-3.96V14.17h13.57V30.51z M42.22,17.69v1.91h5.36v-1.91H42.22z M47.58,24.86v-2.09
		h-5.36v2.09H47.58z M59.82,17.33c-4.18,0-5.22-1.22-5.22-5.15V1.35h4.25v5.18c2.45-0.97,4.86-2.05,6.51-3.02l2.74,3.1
		c-2.74,1.33-6.12,2.45-9.25,3.38v2.12c0,1.3,0.22,1.44,1.58,1.44h3.89c1.19,0,1.4-0.54,1.58-3.67c0.86,0.65,2.56,1.3,3.74,1.55
		c-0.47,4.61-1.62,5.9-4.89,5.9H59.82z M64.57,30.87c1.26,0,1.48-0.68,1.66-4.28c0.9,0.61,2.59,1.26,3.74,1.55
		c-0.43,5.04-1.58,6.48-5,6.48h-5.04c-4.21,0-5.29-1.26-5.29-5.18v-11.3h4.25v4.86c2.56-1.01,5.04-2.2,6.77-3.35l2.81,3.13
		c-2.77,1.48-6.3,2.77-9.58,3.82v2.84c0,1.26,0.25,1.44,1.66,1.44H64.57z"/>
	<path class="st0" d="M99.49,29.97c1.55,0,1.8-1.44,2.09-7.38c1.08,0.86,2.99,1.76,4.21,2.05c-0.47,6.98-1.58,9.61-5.87,9.61h-5.26
		c-4.43,0-5.69-1.58-5.69-6.77v-3.71c-1.4,0.86-2.74,1.58-4.1,2.23c-0.58-0.83-1.76-2.09-2.81-2.95v11.81h-4.54v-18.9
		c-0.9,1.08-1.8,2.05-2.7,2.95c-0.54-1.04-1.94-3.35-2.74-4.36c3.6-3.2,7.13-8.28,9.11-13.46l4.36,1.44
		c-0.97,2.3-2.16,4.64-3.49,6.91v13.14c2.23-1.08,4.61-2.41,6.91-4.1V1.78h4.64v12.99c2.88-2.59,5.54-5.58,7.67-8.85l4.1,2.81
		c-3.35,4.64-7.52,8.67-11.77,11.92v6.91c0,2.09,0.22,2.41,1.66,2.41H99.49z"/>
	<path class="st0" d="M121.92,15.79c-0.29,1.04-0.61,2.05-0.86,3.02h14.07l0.68-0.22l3.31,1.91c-2.45,2.59-5.58,5.72-8.6,8.67
		c1.94,0.76,3.71,1.51,5,2.2l-2.48,3.74c-3.74-2.16-11.48-5.04-17.17-6.55l2.27-3.24c2.38,0.58,5.18,1.37,7.96,2.3
		c1.66-1.62,3.38-3.28,4.9-4.82h-15.95c0.72-1.98,1.51-4.43,2.3-7.02h-8.49v-4.1h9.68c0.29-1.04,0.58-2.02,0.83-3.06h-7.52V4.56h8.6
		c0.25-1.15,0.5-2.2,0.76-3.28h4.54c-0.25,1.08-0.54,2.16-0.83,3.28h13.35v4.07H123.9l-0.83,3.06h17.75v4.1H121.92z"/>
	<path class="st0" d="M177.07,28.92v4.28h-32.18v-4.28h9.29V1.71h4.43v27.21h4.71V1.71h4.43v19.83c1.8-3.42,3.96-8.53,5.15-12.63
		l3.85,1.84c-1.58,4.54-3.85,9.61-5.72,13.07l-3.28-1.66v6.77H177.07z M149.64,23.6c-0.79-3.46-2.66-9.21-4.32-13.64l3.92-1.15
		c1.69,4.21,3.78,9.86,4.68,13.28L149.64,23.6z"/>
	<path class="st0" d="M200.19,2.86c-0.22,0.43-0.47,0.83-0.72,1.26c4.1,4.5,9,7.38,14.72,9.61c-1.12,0.97-2.34,2.48-2.88,3.78
		c-1.58-0.79-3.1-1.58-4.5-2.41l-0.04,0.54c-0.25,6.12-0.61,8.78-1.51,9.86c-0.83,0.97-1.84,1.26-3.06,1.4
		c-1.15,0.11-3.13,0.11-5.18,0c-0.04-1.12-0.5-2.7-1.01-3.78c1.8,0.18,3.49,0.22,4.18,0.22c0.65,0,1.01-0.07,1.3-0.4
		c0.4-0.47,0.65-1.91,0.79-5h-11.19v9.9c0,1.76,0.47,2.05,3.42,2.05h8.71c2.56,0,2.99-0.76,3.35-4.82c1.01,0.68,2.99,1.4,4.28,1.66
		c-0.65,5.79-2.12,7.42-7.34,7.42h-9.25c-5.9,0-7.74-1.3-7.74-6.26V16.11c-1.19,0.68-2.41,1.33-3.67,1.91
		c-0.65-1.19-1.91-2.77-3.02-3.82c6.62-2.59,12.89-7.09,16.27-13.1L200.19,2.86z M204.83,13.88c-2.77-1.8-5.29-3.92-7.74-6.55
		c-2.05,2.48-4.46,4.68-7.13,6.55H204.83z"/>
	<path class="st0" d="M225.28,2.07c-0.65,2.38-1.48,4.79-2.45,7.16v25.56h-3.67V16.69c-0.54,0.86-1.12,1.73-1.69,2.48
		c-0.25-0.97-1.26-3.2-1.87-4.21c2.52-3.46,4.79-8.67,6.08-13.89L225.28,2.07z M233.23,25.69c0.22,1.04,0.68,2.52,1.01,3.31
		c-5.36,3.2-6.41,3.96-6.98,4.64c-0.36-0.94-1.33-2.59-2.02-3.35c0.72-0.5,1.66-1.66,1.66-3.28V16.51h-3.02v-4.1h6.62V27.2
		L233.23,25.69z M229.06,10.53c-0.68-1.48-2.48-3.74-4.1-5.33l2.88-1.94c1.58,1.51,3.49,3.64,4.28,5.15L229.06,10.53z M242.67,15.39
		c-0.9,1.15-1.8,2.2-2.77,3.2h8.49v16.05h-3.82v-1.37h-5.9v1.51h-3.6V22.81c-0.5,0.36-1.04,0.72-1.58,1.08
		c-0.5-0.83-1.87-2.48-2.63-3.24c2.45-1.4,4.71-3.2,6.73-5.26h-5.94v-3.82h4.97V8.34h-3.78V4.77h3.78V1.24h3.85v3.53h3.28v1.87
		c0.79-1.51,1.48-3.1,2.05-4.75l3.78,0.97c-1.15,3.13-2.59,6.05-4.25,8.71h4.39v3.82H242.67z M244.57,21.98h-5.9v2.41h5.9V21.98z
		 M244.57,29.9v-2.48h-5.9v2.48H244.57z M240.47,11.57h0.32c0.72-1.04,1.44-2.09,2.05-3.24h-2.38V11.57z"/>
	<path class="st0" d="M258.69,6.79c-0.9,1.62-1.91,3.02-2.92,4.14c-0.86-0.54-2.7-1.48-3.71-1.91c2.02-1.94,3.78-5,4.71-8.03
		l4.21,0.79c-0.25,0.65-0.5,1.33-0.83,2.02h8.6v2.99h-4.43c0.65,0.94,1.19,1.84,1.48,2.52l-3.64,1.33
		c-0.32-1.01-1.22-2.52-2.05-3.85H258.69z M269.95,8.48c0.54,0.79,1.08,1.87,1.44,2.77h13.03v6.26h-4.39v-3.06h-22.21v3.06h-4.14
		v-6.26h13.39c-0.25-0.68-0.58-1.44-0.94-2.02L269.95,8.48z M262.36,25.61h19.47v9.29h-4.28v-0.97h-15.19v0.97H258V15.93h21.92v8.03
		h-17.57V25.61z M262.36,19.03v1.87h13.39v-1.87H262.36z M262.36,28.74v2.02h15.19v-2.02H262.36z M285.14,3.84v2.95h-4.97
		c0.65,0.86,1.26,1.69,1.62,2.34l-3.6,1.62c-0.4-1.08-1.51-2.63-2.59-3.96h-1.48c-0.61,1.08-1.3,2.05-2.02,2.81
		c-0.79-0.54-2.56-1.4-3.53-1.84c1.66-1.66,2.92-4.25,3.6-6.77l4.14,0.76c-0.22,0.68-0.47,1.4-0.76,2.09H285.14z"/>
	<path class="st0" d="M300.59,27.66c-3.96,1.4-8.28,2.77-11.73,3.89l-0.97-4.36c1.26-0.32,2.74-0.72,4.39-1.19v-8.46h-3.64v-3.92
		h3.64V7.29h-3.96v-4h11.88v4h-3.85v6.33h3.24v3.92h-3.24v7.2c1.19-0.36,2.38-0.72,3.53-1.12L300.59,27.66z M321.97,29.86v3.89
		h-23.14v-3.89h9.93v-3.42h-7.45v-3.85h7.45v-3.1h-7.2V2.76h18.79v16.74h-7.24v3.1h7.63v3.85h-7.63v3.42H321.97z M305.41,9.38h3.71
		V6.39h-3.71V9.38z M305.41,15.86h3.71v-3.1h-3.71V15.86z M316.28,6.39h-3.56v2.99h3.56V6.39z M316.28,12.76h-3.56v3.1h3.56V12.76z"
		/>
	<path class="st0" d="M336.05,25.47c-2.12,2.74-5.33,5.69-7.92,7.49c-0.86-0.79-2.66-2.2-3.74-2.84c2.74-1.48,5.62-3.92,7.34-6.23
		L336.05,25.47z M343.29,21.8v8.39c0,2.09-0.43,3.17-2.02,3.85c-1.55,0.65-3.56,0.68-6.23,0.68c-0.22-1.26-0.94-3.06-1.55-4.17
		c1.84,0.07,4.03,0.07,4.64,0.07c0.61-0.04,0.79-0.14,0.79-0.58v-7.88c-8.28,0.68-9.83,0.9-11.05,1.37
		c-0.18-0.76-0.79-2.74-1.22-3.78c1.44-0.18,2.81-0.79,5.08-1.94c1.08-0.5,3.02-1.51,5.4-2.92c-5.65,0.36-6.84,0.58-7.63,0.9
		c-0.18-0.83-0.79-2.63-1.22-3.67c0.86-0.11,1.69-0.61,2.74-1.37c0.79-0.47,2.63-1.84,4.5-3.56c-2.77,0.18-5.51,0.32-8.17,0.4
		c-0.07-1.08-0.61-2.77-1.01-3.74c8.78-0.32,18.79-1.26,24.87-2.7l3.02,3.53c-3.71,0.9-8.13,1.55-12.78,2.02
		c-1.84,1.8-3.92,3.49-6.05,5l7.2-0.36c1.76-1.22,3.49-2.52,5.08-3.89l3.1,2.77c-4.25,3.35-8.93,6.23-13.57,8.57l10.83-0.76
		c-0.68-0.76-1.37-1.48-2.05-2.12l3.24-1.69c2.74,2.48,5.65,5.87,7.06,8.17l-3.35,2.02c-0.54-0.9-1.3-2.02-2.23-3.2L343.29,21.8z
		 M348.68,23.71c2.77,1.94,6.41,4.75,8.17,6.73l-3.78,2.52c-1.58-1.91-5.08-4.89-7.88-6.95L348.68,23.71z"/>
	<path class="st0" d="M372.45,18.77c-0.14,1.19-0.11,2.88,0,3.74c-8.57,1.98-10.04,2.48-11.01,3.06c-0.22-0.83-0.86-2.88-1.37-3.96
		c0.94-0.22,1.73-0.97,2.84-2.3c0.5-0.54,1.4-1.73,2.52-3.31c-2.81,0.32-3.67,0.54-4.21,0.83c-0.25-0.9-0.97-3.06-1.51-4.28
		c0.79-0.18,1.37-0.94,2.16-2.09c0.76-1.12,3.06-5.47,4.28-9.57l4.36,2.02c-1.33,3.2-3.24,6.66-5.22,9.43l2.59-0.22
		c0.72-1.19,1.4-2.45,2.02-3.74l3.71,2.34c-1.76,3.13-3.92,6.3-6.16,9.11L372.45,18.77z M373.17,28.71
		c-4.03,1.69-8.42,3.42-11.91,4.71l-0.97-4.25c3.02-0.86,7.63-2.52,12.09-4.07L373.17,28.71z M380.87,19.31
		c-0.29,7.56-1.22,12.74-7.77,15.73c-0.5-1.08-1.66-2.74-2.59-3.53c5.44-2.3,5.94-6.08,6.16-12.2H380.87z M390.08,20.39
		c-0.29-0.76-0.72-1.62-1.19-2.56c-12.27,1.26-14.07,1.51-15.26,2.05c-0.22-1.04-0.9-3.2-1.26-4.1c0.76-0.18,1.8-0.5,2.63-1.19
		c0.61-0.65,2.41-2.92,3.89-4.86h-5.65V5.92h7.99c-0.36-1.12-0.9-2.66-1.4-3.85l4.03-1.01c0.68,1.33,1.48,3.13,1.8,4.21l-2.3,0.65
		h9.9v3.82h-9.36c-1.3,1.76-2.77,3.78-4.1,5.4l7.13-0.58c-0.58-0.9-1.15-1.76-1.69-2.56l3.28-1.62c1.94,2.48,4.17,5.87,5.15,8.1
		L390.08,20.39z M389.44,30.65c0.58,0,0.72-0.79,0.79-5.33c0.86,0.68,2.59,1.37,3.64,1.66c-0.32,5.65-1.26,7.27-4,7.27h-2.48
		c-3.2,0-3.96-1.22-3.96-4.82V19.28h4.21v10.11c0,1.12,0.07,1.26,0.58,1.26H389.44z"/>
</g>
</svg>
