<?xml version="1.0" standalone="no"?><!DOCTYPE svg PUBLIC "-//W3C//DTD SVG 1.1//EN" "http://www.w3.org/Graphics/SVG/1.1/DTD/svg11.dtd"><svg t="1548393574293" class="icon" style="" viewBox="0 0 1024 1024" version="1.1" xmlns="http://www.w3.org/2000/svg" p-id="3110" xmlns:xlink="http://www.w3.org/1999/xlink" width="78" height="78"><defs><style type="text/css"></style></defs><path d="M535.86 75.89h57.68v91.56c108.75 0.61 217.61-1.12 326.26 0.51 23.4-2.24 41.72 16 39.37 39.37 1.73 190-0.41 380.18 1 570.33-1 20.55 2 43.34-9.77 61.55-14.85 10.78-34.18 9.36-51.57 10.17-101.73-0.51-203.47-0.31-305.3-0.31v101.74h-63.27c-155-28.29-310.39-54.13-465.53-81.39q-0.15-356 0-711.94c156.98-27.16 313.95-54.83 471.13-81.59z" fill="#C12D84" p-id="3111"></path><path d="M165.37 506.84v-21h50.09v49.53q-7.3 7.64-21.15 13.45a72.18 72.18 0 0 1-28.08 5.8q-18.06 0-31.48-8.18a50.71 50.71 0 0 1-20.18-23.42 80.72 80.72 0 0 1-6.74-33.02q0-19.42 7.53-34.52a52.78 52.78 0 0 1 22.07-23.15q11.07-6.2 27.56-6.2 21.43 0 33.48 9.72t15.53 26.8l-23.08 4.66a26.5 26.5 0 0 0-9.15-14.46q-6.77-5.3-16.77-5.3-15.23 0-24.22 10.43t-9 31q0 22.15 9.11 33.2t23.86 11.08a37.41 37.41 0 0 0 14.64-3.1 49.21 49.21 0 0 0 12.6-7.51v-15.81zM236.2 552.55V428.22h23.24v124.33zM281.73 552.55V428.22h78.9v21H305v29.43h48v21h-48v52.83zM811.45 524.48c0 2.45-0.15 4.76-0.36 7.13a56.27 56.27 0 1 0-67.93-86v0.06h0.12a80 80 0 0 1 68.17 78.81z" fill="#FFFFFF" p-id="3112"></path><path d="M707.82 473.55a56.73 56.73 0 0 0-20.49 16.39A79.76 79.76 0 0 1 758.1 555a65.35 65.35 0 0 1 1.17 14.2c0 1.39 0 2.85-0.07 4.24v0.07l0.15-0.07a56.74 56.74 0 0 0 16.25-13.83A56.09 56.09 0 0 0 786.49 537a58.51 58.51 0 0 0 1.39-12.51 56.31 56.31 0 0 0-55.62-56.28h-0.59a55.6 55.6 0 0 0-23.85 5.34z" fill="#FFFFFF" p-id="3113"></path><path d="M652.12 520.24h-0.08a56.26 56.26 0 1 0 72 83.58 54.13 54.13 0 0 0 10.69-23.13 53.46 53.46 0 0 0 1.17-11.42A56.35 56.35 0 0 0 679.64 513c-1 0-2.07 0-3.07 0.07a56.54 56.54 0 0 0-24.45 7.17z" fill="#FFFFFF" p-id="3114"></path><path d="M590.15 198v620.55h335.73V198z m213.58 360.66v0.08a80 80 0 0 1-50.94 42.6h-0.25a79.68 79.68 0 1 1-93.87-109h0.16a79.92 79.92 0 0 1 56.41-45.78 79.7 79.7 0 1 1 88.52 112.12z" fill="#FFFFFF" p-id="3115"></path><path d="M708.7 495.06A79.73 79.73 0 0 1 758.1 555a79.59 79.59 0 0 0-49.4-59.94z" fill="#F9E4B7" p-id="3116"></path><path d="M652.12 520.2a56.54 56.54 0 0 1 24.45-7.17h-0.07a56.52 56.52 0 0 0-24.38 7.17z" fill="#FFCA55" p-id="3117"></path></svg>