<?xml version="1.0" standalone="no"?><!DOCTYPE svg PUBLIC "-//W3C//DTD SVG 1.1//EN" "http://www.w3.org/Graphics/SVG/1.1/DTD/svg11.dtd"><svg t="1548393547325" class="icon" style="" viewBox="0 0 1024 1024" version="1.1" xmlns="http://www.w3.org/2000/svg" p-id="2492" xmlns:xlink="http://www.w3.org/1999/xlink" width="78" height="78"><defs><style type="text/css"></style></defs><path d="M536.5 73.3h57.7v91.5c108.7 0.6 217.6-1.1 326.2 0.5 23.4-2.2 41.7 16 39.4 39.4 1.7 190-0.4 380.1 1 570.2-1 20.5 2 43.3-9.8 61.5-14.8 10.8-34.2 9.4-51.6 10.2-101.7-0.5-203.4-0.3-305.2-0.3V948h-63.3c-155-28.3-310.3-54.1-465.4-81.4-0.1-237.3-0.1-474.6 0-711.8 156.9-27.1 313.9-54.8 471-81.5z" fill="#077467" p-id="2493"></path><path d="M590.8 195.3v439.9l7.6-3.8 14-6.4 14-16.5h28l45.8-54.7 80.1 86.5h29.2l62.3 48.3-66.1-28h-24.2l-73.7-45.7-39.4 47-19.1-22.9-58.5-3.8v180.6h335.6V195.3H590.8z m226.3 245.4c-25.3 0-45.8-20.5-45.8-45.8 0-25.3 20.5-45.8 45.8-45.8 25.3 0 45.8 20.5 45.8 45.8s-20.5 45.8-45.8 45.8zM112.9 553.7V427.1h41c15.6 0 25.7 0.6 30.4 1.9 7.3 1.9 13.3 6 18.2 12.4 4.9 6.4 7.3 14.6 7.3 24.7 0 7.8-1.4 14.3-4.2 19.6-2.8 5.3-6.4 9.5-10.8 12.5-4.3 3-8.8 5-13.3 6-6.1 1.2-14.9 1.8-26.5 1.8h-16.7v47.8h-25.4z m25.6-105.2v35.9h14c10.1 0 16.8-0.7 20.2-2 3.4-1.3 6.1-3.4 8-6.2 1.9-2.8 2.9-6.1 2.9-9.8 0-4.6-1.4-8.4-4.1-11.4-2.7-3-6.1-4.9-10.3-5.6-3.1-0.6-9.2-0.9-18.4-0.9h-12.3zM231.2 553.7V427.1h24.9l51.8 84.6v-84.6h23.8v126.7H306l-51-82.7v82.6h-23.8zM417.7 507.2v-21.3h55.1v50.5c-5.4 5.2-13.1 9.7-23.3 13.7-10.2 3.9-20.5 5.9-30.9 5.9-13.2 0-24.8-2.8-34.6-8.3-9.8-5.6-17.3-13.5-22.2-23.8-5-10.3-7.4-21.6-7.4-33.7 0-13.2 2.8-24.9 8.3-35.2 5.5-10.3 13.6-18.1 24.3-23.6 8.1-4.2 18.2-6.3 30.3-6.3 15.7 0 28 3.3 36.8 9.9 8.8 6.6 14.5 15.7 17.1 27.3l-25.4 4.8c-1.8-6.2-5.1-11.1-10.1-14.7-4.9-3.6-11.1-5.4-18.4-5.4-11.2 0-20.1 3.5-26.7 10.6-6.6 7.1-9.9 17.6-9.9 31.5 0 15 3.3 26.3 10 33.8 6.7 7.5 15.4 11.3 26.3 11.3 5.4 0 10.7-1.1 16.1-3.2 5.4-2.1 10-4.7 13.9-7.6v-16.1h-29.3z" fill="#FFFFFF" p-id="2494"></path></svg>